<?xml version="1.0" encoding="UTF-8" standalone="no"?>
<svg
   xmlns:dc="http://purl.org/dc/elements/1.1/"
   xmlns:cc="http://creativecommons.org/ns#"
   xmlns:rdf="http://www.w3.org/1999/02/22-rdf-syntax-ns#"
   xmlns:svg="http://www.w3.org/2000/svg"
   xmlns="http://www.w3.org/2000/svg"
   viewBox="0 0 4000 2666.6667"
   height="2666.6667"
   width="4000"
   xml:space="preserve"
   id="svg2"
   version="1.1"><metadata
     id="metadata8"><rdf:RDF><cc:Work
         rdf:about=""><dc:format>image/svg+xml</dc:format><dc:type
           rdf:resource="http://purl.org/dc/dcmitype/StillImage" /></cc:Work></rdf:RDF></metadata><defs
     id="defs6" /><g
     transform="matrix(1.3333333,0,0,-1.3333333,0,2666.6667)"
     id="g10"><g
       transform="scale(0.1)"
       id="g12"><g
         transform="scale(1.84049)"
         id="g14"><path
           id="path16"
           style="fill:#ffffff;fill-opacity:1;fill-rule:nonzero;stroke:none"
           d="M 16300,0 H 0 V 10866.7 H 16300 V 0" /></g><g
         transform="scale(1.66349)"
         id="g18"><path
           id="path20"
           style="fill:#ebf3fa;fill-opacity:1;fill-rule:nonzero;stroke:none"
           d="m 15733.5,1287.83 -5725.1,-1.44 -1253.14,-0.3 -414.37,-0.12 -1250.74,-0.36 -4692.32,-22.18 c -3.06,9.8 -6.06,19.54 -8.92,29.21 -507.92,1688.74 1033.78,1667.7 1459.65,2192.5 151.64,186.78 161.86,442.81 -112.03,869.68 -1.29,2.04 -2.63,4.02 -3.93,6.07 -163.38,255.67 -282.27,506.77 -360.91,751.97 -164.84,513.62 -153.34,1001.71 -5.05,1452.71 112.39,341.89 303.46,662.54 555.93,956.84 98.29,114.67 205.97,225.35 322,331.75 2330.04,2137.17 8012.23,2542.24 8798.43,-1191.89 445.8,-2117.13 1150.9,-892.24 2601.2,-2396.3 478.8,-496.55 640.3,-1002.05 645.6,-1452.31 10.2,-865.05 -556.3,-1525.83 -556.3,-1525.83" /></g><path
         id="path22"
         style="fill:#f1f7fd;fill-opacity:1;fill-rule:nonzero;stroke:none"
         d="m 14608.7,11747.5 c -26.6,-192.5 -73,-396.2 -141.2,-611.8 -126.1,-399.8 -326.4,-839.8 -612.2,-1322.7 -60.1,-101.7 -111.1,-197.6 -153.5,-288.7 L 5608.78,8505.2 c -274.22,854.4 -255.08,1666.3 -8.4,2416.6 L 14315.6,13268 c 146.1,-224.4 247,-479.7 292.9,-768.5 36.4,-229.2 38,-479.3 0.2,-752" /><g
         transform="scale(1.66349)"
         id="g24"><path
           id="path26"
           style="fill:#dfebfd;fill-opacity:1;fill-rule:nonzero;stroke:none"
           d="m 15733.5,1287.83 -5725.1,-1.44 -1253.14,-0.3 -414.37,-0.12 -1250.74,-0.36 -4692.32,-22.18 c -3.06,9.8 -6.06,19.54 -8.92,29.21 -507.92,1688.74 1033.78,1667.7 1459.65,2192.5 151.64,186.78 161.86,442.81 -112.03,869.68 -1.29,2.04 -2.63,4.02 -3.93,6.07 1495.35,615.93 1489.83,549.87 3084.15,283.2 1967.49,-329.01 3586.95,-711.22 4388.95,-296.24 801.9,414.97 2530.7,115.35 3006,-482.36 475.4,-597.66 369.8,-1189.91 862.8,-1140.26 351.7,35.41 793,207.22 1215.3,88.43 10.2,-865.05 -556.3,-1525.83 -556.3,-1525.83" /></g><path
         id="path28"
         style="fill:#bde5b3;fill-opacity:1;fill-rule:nonzero;stroke:none"
         d="m 10804.9,6942.3 c 0,0 -1130.34,186.4 -1897.71,-443.9 -767.36,-630.3 -313.93,-1707.2 -947.51,-1846.6 -913.43,-201 -3014.33,-489.3 -2795.11,-2464.3 22.17,-199.7 6412.33,0 6412.33,0 l -274.1,4254.6 -497.9,500.2" /><g
         transform="scale(1.50547)"
         id="g30"><path
           id="path32"
           style="fill:#82b378;fill-opacity:1;fill-rule:nonzero;stroke:none"
           d="m 13303.4,3661.19 c 0,0 896.7,163.8 1519.2,-345.87 622.6,-509.74 338.9,-928.42 672.3,-1037.69 333.6,-109.2 805.1,-322.89 699.4,-862.32 H 13181 l 122.4,2245.88" /></g><g
         transform="scale(1.57604)"
         id="g34"><path
           id="path36"
           style="fill:#82b378;fill-opacity:1;fill-rule:nonzero;stroke:none"
           d="m 16242.7,1392.41 h -387 c -20.7,17.58 14.4,57.49 51,60.21 16,1.21 36.1,-2.15 59.1,-6.97 5.3,70.68 35.7,388.69 150.4,375.87 128.9,-14.27 0,-140.03 -36.5,-214.46 -27,-55.13 -55.5,-134.19 -68.5,-171.5 10.5,-2.29 21.4,-4.51 32.4,-6.54 17.1,52.48 80.6,228.87 161.5,218.59 94.9,-11.99 56.8,-82.74 -10.5,-124.74 -49.4,-30.84 -109.9,-74.75 -138.8,-95.94 24.5,-4 49.9,-6.66 75.7,-6.09 66.3,1.58 98.7,-17.96 111.2,-28.43" /></g><g
         transform="scale(1.32245)"
         id="g38"><path
           id="path40"
           style="fill:#cde0fb;fill-opacity:1;fill-rule:nonzero;stroke:none"
           d="M 16300,2067.08 H 8170.68 V 13263.5 H 16300 V 2067.08" /></g><g
         transform="scale(1.33115)"
         id="g42"><path
           id="path44"
           style="fill:#afcdfb;fill-opacity:1;fill-rule:nonzero;stroke:none"
           d="M 16300,7768.07 H 8010.68 v 356.82 H 16300 v -356.82" /></g><g
         transform="scale(1.22972)"
         id="g46"><path
           id="path48"
           style="fill:#e6f0fd;fill-opacity:1;fill-rule:nonzero;stroke:none"
           d="M 16300,9409.12 H 13911.9 V 12583.6 H 16300 V 9409.12" /></g><g
         transform="scale(1.22533)"
         id="g50"><path
           id="path52"
           style="fill:#dfebfd;fill-opacity:1;fill-rule:nonzero;stroke:none"
           d="M 16300,12570.2 V 9501.31 H 14020.3 V 12570.2 H 16300" /></g><g
         transform="scale(1.0947)"
         id="g54"><path
           id="path56"
           style="fill:#afcdfb;fill-opacity:1;fill-rule:nonzero;stroke:none"
           d="m 16300,14105 v -978.3 c 0,-8.6 -0.1,-17 -0.3,-25.2 -1.6,-76.3 -10.7,-134.9 -21.4,-134.9 h -3.1 c -10.1,0 -18.5,50.5 -21,118.6 -0.2,5.7 -0.4,11.4 -0.5,17.2 v 1.3 c -0.2,7.5 -0.2,15.2 -0.2,23 v 982.8 c 15.6,-1.1 31.2,-2.6 46.5,-4.5" /></g><g
         transform="scale(1.11292)"
         id="g58"><path
           id="path60"
           style="fill:#afcdfb;fill-opacity:1;fill-rule:nonzero;stroke:none"
           d="m 15998.4,12875.9 c -166.7,0 -301.8,-142.8 -301.8,-319 h 603.4 c 0,176.2 -135,319 -301.6,319" /></g><g
         transform="scale(1.09396)"
         id="g62"><path
           id="path64"
           style="fill:#cde0fb;fill-opacity:1;fill-rule:nonzero;stroke:none"
           d="m 16300,13095.1 c -8.8,1.9 -17.8,2.9 -27,2.9 -110.4,0 -200,-144.8 -200,-323.5 h 54 c 0,163.9 75.3,299.3 173,320.6" /></g><g
         transform="scale(1.14571)"
         id="g66"><path
           id="path68"
           style="fill:#82b378;fill-opacity:1;fill-rule:nonzero;stroke:none"
           d="m 15491.1,11168.6 c 0,0 -144.3,168.4 -8.9,275.4 0,0 98.9,59.9 179.6,55 0,0 -114.3,-191.6 -77.3,-210.7 37,-19.1 111.9,222.8 111.9,222.8 0,0 225.1,21.8 297.6,-13 0,0 -192.5,-157.5 -151.9,-166.9 40.5,-9.4 248.4,145.2 248.4,145.2 0,0 209.5,-35.7 198.3,-163.5 -11.1,-127.8 -83.3,-167.3 -115,-163.9 -31.8,3.4 -217.4,74.3 -221.4,48.3 -4.1,-26 107.7,-111 185.9,-115 0,0 -147.7,-162.9 -245.9,-115.9 -98.2,47.1 -106.6,121.6 -167.8,149.5 -61.1,28 -113.4,27.9 -88.1,-0.6 25.2,-28.5 136,-56.2 171,-118.1 35,-61.9 66.4,-103.7 -35.2,-88.4 -101.6,15.3 -266.7,89.6 -274,174.7 -7.2,85.1 -7.2,85.1 -7.2,85.1" /></g><g
         transform="scale(1.13769)"
         id="g70"><path
           id="path72"
           style="fill:#82b378;fill-opacity:1;fill-rule:nonzero;stroke:none"
           d="m 16300,11389.2 c 0,0 -573.2,22.1 -699.7,-141.8 0,0 -28,-83.9 -114.1,-160.2 l -13.5,-36.6 c 0,0 99.3,104.7 134.8,111.1 0,0 -55.5,203 692.5,227.5" /></g><g
         transform="scale(1.08592)"
         id="g74"><path
           id="path76"
           style="fill:#82b378;fill-opacity:1;fill-rule:nonzero;stroke:none"
           d="m 16224.5,11615.8 c 0,0 -128.9,-95.3 -137.9,-265.6 l 23.4,-2.1 c 0,0 41.2,176.1 115.6,244.9 74.4,68.9 -1.1,22.8 -1.1,22.8" /></g><g
         transform="scale(1.07634)"
         id="g78"><path
           id="path80"
           style="fill:#a8d29f;fill-opacity:1;fill-rule:nonzero;stroke:none"
           d="m 16095,11866.9 c 0,0 0,0 -33.4,-71.6 -1.5,-3.2 -3.1,-6.7 -4.7,-10.2 l -0.1,-0.2 c -14.4,-30.9 -50.7,-52.1 -95.9,-65.3 v 587.5 c 32.8,-14.2 54.9,-24.8 54.9,-24.8 0,0 -13.7,-267.8 30.1,-262.3 43.7,5.4 0,237.7 0,237.7 81.9,-24.6 158.5,-120.2 158.5,-120.2 95.6,-155.8 -109.4,-270.6 -109.4,-270.6" /></g><g
         transform="scale(1.06642)"
         id="g82"><path
           id="path84"
           style="fill:#82b378;fill-opacity:1;fill-rule:nonzero;stroke:none"
           d="m 16300,11775.9 v -41.3 c 0,0 -0.8,1.6 -2.1,4.6 l -0.1,0.4 c -1.7,4.2 -3.6,8.2 -5.5,12.1 -0.4,1 -0.8,2 -1.3,3 l -1,2.2 c -3.7,7.9 -8.3,17.6 -13.3,28.1 l -0.2,0.4 c -20.8,42.4 -50.5,97.5 -70.4,109.1 l 0.1,0.2 c 0.5,0.7 2.7,4.2 4.8,10.3 8.3,24.4 14.4,91 -101.6,191.7 v 35.9 c 66.8,-48.4 118.2,-101.1 135.4,-155.3 0,0 -2.7,-93.6 55,-201.1 l 0.2,-0.3" /></g><g
         transform="scale(1.07226)"
         id="g86"><path
           id="path88"
           style="fill:#82b378;fill-opacity:1;fill-rule:nonzero;stroke:none"
           d="m 16211.1,11711.8 c 0,0 88.9,-134.9 38.3,-299.1 l -22.9,6.1 c 0,0 22.2,180.9 -24.3,271.9 -46.5,90.9 8.9,21.1 8.9,21.1" /></g><g
         transform="scale(1.14657)"
         id="g90"><path
           id="path92"
           style="fill:#a8d29f;fill-opacity:1;fill-rule:nonzero;stroke:none"
           d="m 15339.6,11414.5 c 0,0 -253.7,142 -135.3,334.8 0,0 94.7,118.4 196.1,148.8 0,0 -54.1,-287.5 0,-294.2 54.1,-6.8 37.2,324.6 37.2,324.6 0,0 267.2,128.5 372.1,118.4 0,0 -165.7,-280.7 -111.7,-273.9 54.1,6.7 240.1,290.8 240.1,290.8 0,0 274,50.7 317.9,-111.6 44,-162.3 -27,-243.5 -67.6,-253.6 -40.6,-10.2 -301,-6.8 -294.2,-40.6 6.7,-33.8 182.6,-87.9 280.6,-57.5 0,0 -108.2,-267.2 -250.2,-253.6 -142.1,13.5 -186,101.4 -273.9,108.2 -87.9,6.7 -152.2,-16.9 -108.3,-40.6 44,-23.7 192.8,-7.8 263.9,-68.1 71,-60.4 128.4,-97.6 -3.4,-124.7 -131.9,-27 -368.6,-10.1 -416,91.3 -47.3,101.5 -47.3,101.5 -47.3,101.5" /></g><g
         transform="scale(1.13467)"
         id="g94"><path
           id="path96"
           style="fill:#82b378;fill-opacity:1;fill-rule:nonzero;stroke:none"
           d="m 16300,12026.2 c 0,0 -717.6,-232.3 -799.6,-492 0,0 3.4,-116.2 -68.4,-249.5 v -51.2 c 0,0 75.2,174.2 116.2,198.2 0,0 -160.6,225.5 751.8,594.5" /></g><g
         transform="scale(1.07906)"
         id="g98"><path
           id="path100"
           style="fill:#82b378;fill-opacity:1;fill-rule:nonzero;stroke:none"
           d="m 16227.3,11866.3 c 0,0 -116.3,-176.7 -49.9,-391.8 l 29.9,8 c 0,0 -29.1,237 31.8,356.1 60.9,119.2 -11.8,27.7 -11.8,27.7" /></g><g
         transform="scale(1.22123)"
         id="g102"><path
           id="path104"
           style="fill:#f99746;fill-opacity:1;fill-rule:nonzero;stroke:none"
           d="m 15840.7,10022.2 c 0,0 352.4,1435.9 377.9,1556.6 11.3,53.7 46.3,73.2 81.4,78.2 -61.9,6.3 -107,6.8 -107,6.8 -121.9,0 -230.3,-87.3 -269.4,-217 -85.4,-283 -416.2,-756.6 -575.4,-1288 8.1,0.2 492.5,-136.6 492.5,-136.6" /></g><g
         transform="scale(1.14411)"
         id="g106"><path
           id="path108"
           style="fill:#f99746;fill-opacity:1;fill-rule:nonzero;stroke:none"
           d="m 15015.5,10175.8 v 287.3 c 68.3,131.8 137.2,251.1 196.8,344.6 9.2,14.3 18.1,28.1 26.8,41.1 v 0.1 c 2.8,4.2 5.6,8.4 8.4,12.5 v 0.1 c 11.3,17 22.3,32.8 32.6,47.2 v 0.1 c 15.9,22.2 30.4,41.4 43.2,56.9 17.9,21.9 41,39.3 68,52.7 v 0.1 c 2.3,1.2 4.6,2.3 6.9,3.3 10.1,4.8 20.8,9 31.9,12.7 1.1,0.4 2.3,0.8 3.5,1.2 h 0.1 c 31.2,10.3 65.9,16.8 103.1,20.4 h 0.1 c 81.1,7.9 173.7,1.7 265.3,-11.5 h 0.1 c 11.7,-1.7 23.4,-3.4 35.1,-5.4 50.8,-8.2 100.8,-18.3 147.9,-29.2 h 0.5 c 17.2,-4 34,-8 50.2,-12 1.3,-0.4 2.5,-0.6 3.7,-1 h 0.1 c 5.7,-1.4 11.4,-2.9 17,-4.3 25.2,-6.4 49.2,-12.9 71.3,-19.1 91.9,-25.9 152.9,-47.6 152.9,-47.6 l 0.4,-12.4 1.1,-46.3 0.6,-22.7 1.7,-66.8 0.1,-2.9 0.2,-9.2 1.4,-58.1 0.2,-4.8 13.3,-527 h -1284.5" /></g><g
         transform="scale(1.17928)"
         id="g110"><path
           id="path112"
           style="fill:#db6f26;fill-opacity:1;fill-rule:nonzero;stroke:none"
           d="m 16288.9,10402.5 c -7.6,3.7 -18.9,9.3 -33.5,16.4 h -0.1 c -2.8,1.3 -5.7,2.7 -8.6,4.1 h -0.1 c -7.9,3.8 -16.6,7.9 -26.1,12.3 -11.7,5.5 -24.4,11.4 -38.1,17.6 -18.9,8.6 -39.7,18 -62.1,27.7 -6.5,2.9 -13.1,5.8 -20,8.7 h -0.1 c -6.4,2.8 -13,5.6 -19.7,8.4 l -0.1,0.1 c -26.1,11.1 -53.8,22.6 -82.8,34.1 l -0.1,0.1 c -27,10.9 -55.3,21.9 -84.4,32.6 l -4.6,1.8 c -81,30.1 -168.2,59.2 -255.2,82.5 -27.4,7.3 -54.6,14.1 -81.6,20 h -0.1 c -3.7,0.9 -7.4,1.7 -11,2.5 h -0.1 l -0.6,0.2 h -0.1 c -17,3.7 -34,7 -50.8,10 l -0.5,0.1 c -45.5,8.2 -89.7,13.9 -131.9,16.3 -10.1,0.6 -20,1 -29.7,1.2 -77.5,1.8 -146.6,-8.5 -200.5,-35.9 -36.8,-18.8 -66.5,-45.5 -87.2,-81.7 -21.2,-37.3 -49.8,-97 -82.2,-172.5 -60,-139.5 -132.9,-332.8 -195.3,-536.83 h 1470.9 l 3.7,41.56 0.1,0.17 7.4,82.08 36.1,399.62 0.1,1.2 c 0,0 -3.8,2 -11.1,5.6" /></g><g
         transform="scale(1.22533)"
         id="g114"><path
           id="path116"
           style="fill:#ffa969;fill-opacity:1;fill-rule:nonzero;stroke:none"
           d="M 16300,11619.4 V 9501.31 h -82.2 c -58.4,8.25 -116.6,17.22 -173.2,26.94 h -0.1 c -96.6,16.56 -188.3,35.17 -268.1,55.57 -23.5,6.04 -46,12.16 -67.3,18.53 -12.8,3.83 -25.2,7.67 -37,11.59 -6.6,2.12 -13.2,4.32 -19.4,6.53 -89.1,31.09 -146.9,65.2 -154,101.6 -6.4,33.22 9.5,112.3 40,219.7 l 0.1,0.16 c 5.4,19.43 11.4,39.91 17.9,61.17 2.9,9.8 6,19.7 9.1,29.9 1.3,3.8 2.5,7.8 3.7,11.7 l 1.5,4.9 c 1.1,3.5 2.3,7 3.3,10.5 0.3,0.9 0.6,1.8 0.8,2.6 v 0.1 c 7.3,22.8 14.8,46.1 22.7,70.2 11.4,34.2 23.3,69.7 35.8,106.1 16.3,47.6 33.6,96.7 51.5,146.9 5.3,14.6 10.5,29.2 15.8,44 18.8,52.2 38.3,105.2 57.9,158.3 50.6,136.5 103.1,273.7 151.8,399.1 14.7,37.8 29,74.4 42.9,109.7 l 0.1,0.1 c 9.5,24.6 18.9,48.4 28,71.4 26.6,67.6 45.5,132.4 63.1,190.9 v 0.1 c 26.3,87.5 50,160.6 92.9,206.8 25,26.9 56.6,44.6 99.2,50.8 2.5,0.3 5,0.6 7.6,0.9 h 0.2 0.1 c 8.3,0.9 16.9,1.3 25.8,1.3 h 29.5" /></g><g
         transform="scale(1.20674)"
         id="g118"><path
           id="path120"
           style="fill:#ffa969;fill-opacity:1;fill-rule:nonzero;stroke:none"
           d="m 16291.7,9675.02 h -0.1 l -144.8,477.28 -2.4,7.8 c 0,0 -16.3,1.7 -45.6,4.3 -16.5,1.5 -37,3.4 -61.2,5.4 -38.3,3.3 -85.7,7.2 -139.8,11.2 v 0 c -1.6,0.1 -3.1,0.2 -4.7,0.3 h -0.1 c -2.4,0.2 -4.9,0.4 -7.4,0.5 h -0.1 c -10.1,0.9 -20.5,1.6 -31.1,2.4 h -0.1 c -4.8,0.3 -9.6,0.6 -14.5,1 -11.2,0.8 -22.6,1.5 -34.2,2.4 -81.6,5.5 -173.2,11 -269,15.4 -23.5,1.1 -47.4,2 -71.4,3 -8.4,0.4 -16.8,0.6 -25.3,1 -57.2,2 -115.3,3.7 -173.1,4.6 h -0.1 c -78.3,1.2 -156,1.2 -230.4,-0.4 h -0.1 c -5.9,-0.2 -11.7,-0.4 -17.6,-0.5 -36.9,-1 -73,-2.4 -107.8,-4.4 -66.1,-3.7 -127.7,-9.2 -182.4,-17 -33.5,-4.8 -64.4,-10.4 -92.1,-17 -63.2,-14.9 -110.1,-34.8 -134.1,-60.6 -52.3,-56.3 -90.3,-236.47 -117.8,-464.02 H 16300 l -8.3,27.34" /></g><g
         transform="scale(1.16648)"
         id="g122"><path
           id="path124"
           style="fill:#ffb27d;fill-opacity:1;fill-rule:nonzero;stroke:none"
           d="m 16300,11474.6 c 0,0 -84.9,-30.3 -151.8,-166.1 -66.9,-135.7 -94.6,-501.2 -127.8,-504.7 -33,-3.5 -284.7,45.5 -284.7,45.5 l 5.8,-62.7 c 0,0 261.8,-174.2 316.5,-142.9 54.6,31.3 205.7,453.5 215.4,517.4 9.8,63.9 26.6,313.5 26.6,313.5" /></g><g
         transform="scale(1.20939)"
         id="g126"><path
           id="path128"
           style="fill:#ffffff;fill-opacity:1;fill-rule:nonzero;stroke:none"
           d="m 16285.7,11113 c 0,0 -328.4,69.6 -563.9,-45.5 0,0 -151,-325.1 -146.3,-380.2 4.6,-55.2 57.1,-284.9 9.5,-371.6 -47.5,-86.8 436.8,-240.9 524.1,-187.2 87.3,53.7 190.9,924.7 176.6,984.5" /></g><g
         transform="scale(1.12439)"
         id="g130"><path
           id="path132"
           style="fill:#163560;fill-opacity:1;fill-rule:nonzero;stroke:none"
           d="m 16249.6,10539.3 c -23.9,-55.2 -55.5,-117.9 -91.1,-185 h -480.2 c 55.1,287.3 104.3,487.3 128.8,581.3 10.5,40.2 16.5,61 16.5,61 23.4,41.3 51.5,64.2 82.1,73.2 l 0.4,0.1 c 64.6,18.6 140.3,-24.6 207.8,-87.7 8,-7.5 15.9,-15.2 23.5,-23.2 h 0.1 c 25.5,-26.4 49.5,-55.1 70.5,-83.6 48.3,-65 81.8,-128.8 86.4,-161.4 5.6,-39 -12.5,-99.9 -44.8,-174.7" /></g><g
         transform="scale(1.15215)"
         id="g134"><path
           id="path136"
           style="fill:#163560;fill-opacity:1;fill-rule:nonzero;stroke:none"
           d="m 15519.4,10801.5 c 0,0 105.4,60.5 345,8.4 239.5,-52 435.6,-176.4 435.6,-176.4 l -611,-25.4 -169.6,193.4" /></g><g
         transform="scale(1.21539)"
         id="g138"><path
           id="path140"
           style="fill:#ffb27d;fill-opacity:1;fill-rule:nonzero;stroke:none"
           d="m 16114.8,11058.9 c 0,0 145,26.6 165,-91.4 20.2,-118 2.4,-830.3 -108.6,-866.2 -111,-35.9 -566.3,164.4 -566.3,164.4 l 13.8,76.1 c 0,0 435.5,-59.3 451.2,-52.8 15.8,6.6 44.9,769.9 44.9,769.9" /></g><g
         transform="scale(1.13653)"
         id="g142"><path
           id="path144"
           style="fill:#b5453c;fill-opacity:1;fill-rule:nonzero;stroke:none"
           d="m 16034.8,11252.1 -22.1,203.1 287.3,-378.6 c 0,0 -120.3,-59.9 -127.3,-48.4 -7.1,11.5 -137.9,223.9 -137.9,223.9" /></g><g
         transform="scale(1.16652)"
         id="g146"><path
           id="path148"
           style="fill:#b5453c;fill-opacity:1;fill-rule:nonzero;stroke:none"
           d="M 16041.5,10962.8 16300,10568 h -434.3 l -243.1,394.8 h 418.9" /></g><g
         transform="scale(1.12706)"
         id="g150"><path
           id="path152"
           style="fill:#ffffff;fill-opacity:1;fill-rule:nonzero;stroke:none"
           d="m 16169.7,11346.7 -21.1,202.9 151.4,-189.5 -130.3,-13.4" /></g><g
         transform="scale(1.16699)"
         id="g154"><path
           id="path156"
           style="fill:#efdece;fill-opacity:1;fill-rule:nonzero;stroke:none"
           d="m 16280.2,10583.9 19.8,14.2 -256.8,381.7 -8.2,-21.4 245.2,-374.5" /></g><g
         transform="scale(1.14861)"
         id="g158"><path
           id="path160"
           style="fill:#fcecdb;fill-opacity:1;fill-rule:nonzero;stroke:none"
           d="m 16300,11155.6 -415.5,-11.7 -18.2,-10.1 h 425.3 l 8.4,21.8" /></g><g
         transform="scale(1.15842)"
         id="g162"><path
           id="path164"
           style="fill:#1c468a;fill-opacity:1;fill-rule:nonzero;stroke:none"
           d="m 16300,10050 h -466.2 c -22.6,64.3 -43.1,124.3 -61.7,179.7 -46.9,140.3 -81.2,250.8 -103,323.6 -11.5,38.9 -19.6,67 -24.1,83.2 -3.1,10.7 -4.6,16.3 -4.6,16.3 0,2.2 0,4.4 0.1,6.7 0.7,51.8 18.5,86.2 47.2,107.4 1.5,1.1 3,2.1 4.6,3.2 l 0.1,0.1 c 47.3,31.3 121.2,29.9 197.4,12.6 h 0.1 c 68.1,-15.4 137.9,-43.5 192,-72.2 44,-23.3 77.5,-47.1 91.5,-64.7 1,-1.3 2,-2.6 3.1,-4.1 2.6,-3.9 5.4,-8.4 8.1,-13.3 7,-12.9 13.8,-29.2 20.4,-48.5 0.4,-1 0.7,-1.9 1,-2.9 l 0.5,-1.4 c 26.3,-78.4 49.7,-203.2 70.1,-345.3 v -0.1 c 8.4,-57.9 16.2,-118.6 23.4,-180.3" /></g><g
         transform="scale(1.18039)"
         id="g166"><path
           id="path168"
           style="fill:#1c468a;fill-opacity:1;fill-rule:nonzero;stroke:none"
           d="m 15400.3,10569.6 c 0,0 177.1,159 899.7,-183.3 l -593.4,-9 -306.3,192.3" /></g><g
         transform="scale(1.16458)"
         id="g170"><path
           id="path172"
           style="fill:#ffb27d;fill-opacity:1;fill-rule:nonzero;stroke:none"
           d="m 16300,10792.9 c 0,0 -66.6,44.7 -91.2,48.1 -28.8,4.1 -59.8,40.4 -56.7,19.7 3,-20.7 34.9,-47.4 43.7,-56 8.8,-8.7 -49.8,-7.2 -73.5,4.2 -11,5.4 -70,20.7 -69.6,-0.5 0.2,-12.7 23.4,-73.9 81.6,-87.1 26.9,-6.1 156.3,-9.7 156.3,-9.7 l 9.4,81.3" /></g><g
         transform="scale(1.21099)"
         id="g174"><path
           id="path176"
           style="fill:#233862;fill-opacity:1;fill-rule:nonzero;stroke:none"
           d="m 15967.7,11431 c 0,0 122.2,-66.9 28,-200.5 0,0 106.2,-15.3 133.9,14.6 0,0 -4.5,-13.3 -9.4,-19.7 0,0 103.6,10.6 141.7,48.7 38.1,38 -62.6,561.6 -340.4,462.9 0,0 -245.1,-15.4 -183.5,-292.9 61.6,-277.4 -29.9,-290.1 -29.9,-290.1 0,0 27.2,-9.1 39.5,-7.3 0,0 17,9.3 19.1,19.7 0,0 -1.3,-16.1 -5.3,-21.7 0,0 100.2,4.4 144.3,48.6 44.2,44.1 84.1,181.8 62,237.7" /></g><g
         transform="scale(1.20238)"
         id="g178"><path
           id="path180"
           style="fill:#233862;fill-opacity:1;fill-rule:nonzero;stroke:none"
           d="m 16125.5,11372.4 c 0,0 67,94.4 86.3,177.2 13.7,59 88.2,301.9 -135.6,281.8 0,0 -158.1,-23.2 -220.9,-61 -50,-30 -123.3,-96.7 -55.6,-293.7 l 16.8,-66.2 309,-38.1" /></g><g
         transform="scale(1.19572)"
         id="g182"><path
           id="path184"
           style="fill:#ffb27d;fill-opacity:1;fill-rule:nonzero;stroke:none"
           d="m 16070.4,11150.6 c 16.8,-12.3 90.2,-27.4 149,1.7 55.3,27.4 80.6,86.7 72.3,110.9 -8.3,24.3 -33.9,32.4 -61.9,178.6 l -10.8,-4.4 -180.8,-73.9 c 0,0 15.8,-58.4 26.9,-114.1 9.3,-46.8 -4.5,-91.7 5.3,-98.8" /></g><g
         transform="scale(1.18978)"
         id="g186"><path
           id="path188"
           style="fill:#ed975d;fill-opacity:1;fill-rule:nonzero;stroke:none"
           d="m 16118.3,11420.2 c 0,0 15.9,-58.6 27,-114.7 105.1,23.7 142.3,131.1 154.7,189 l -181.7,-74.3" /></g><g
         transform="scale(1.19302)"
         id="g190"><path
           id="path192"
           style="fill:#ffb27d;fill-opacity:1;fill-rule:nonzero;stroke:none"
           d="m 16049.6,11329.4 c 0,0 250.4,44.6 220.2,200.1 -30.1,155.5 -18.2,266 -179.3,244.1 -161.1,-21.9 -180.5,-87.3 -183.1,-141.6 -2.5,-54.4 76.3,-310.2 142.2,-302.6" /></g><g
         transform="scale(1.1986)"
         id="g194"><path
           id="path196"
           style="fill:#233862;fill-opacity:1;fill-rule:nonzero;stroke:none"
           d="m 15907.7,11755.4 c 0,0 122.7,-206.7 243.5,-220.5 120.9,-13.8 148.8,38.9 148.8,38.9 0,0 -99.4,58.7 -135.2,180.2 0,0 -213.1,106 -257.1,1.4" /></g><g
         transform="scale(1.17131)"
         id="g198"><path
           id="path200"
           style="fill:#233862;fill-opacity:1;fill-rule:nonzero;stroke:none"
           d="m 16300,12015.1 c 0,0 -51.7,-54.4 -59.6,-101.5 -7.9,-47 -1.4,-140.7 -28.9,-141.3 0,0 -78.2,133 -23.4,222 58.1,94.4 111.9,20.8 111.9,20.8" /></g><g
         transform="scale(1.18828)"
         id="g202"><path
           id="path204"
           style="fill:#233862;fill-opacity:1;fill-rule:nonzero;stroke:none"
           d="m 16057.5,11835.1 c 0,0 84.4,-206.8 242.5,-254.8 0,0 -166.9,111.1 -199.2,250.8 -32.2,139.8 -43.3,4 -43.3,4" /></g><g
         transform="scale(1.21099)"
         id="g206"><path
           id="path208"
           style="fill:#233862;fill-opacity:1;fill-rule:nonzero;stroke:none"
           d="m 16261.9,11274.1 c -38,-38.1 -141.7,-48.7 -141.7,-48.7 5,6.3 9.4,19.7 9.4,19.7 -54.3,-41.5 -183.7,-6.6 -183.7,-6.6 104.6,20 75.2,170.9 40,178.3 -17.4,113.6 -54.3,255.6 -71.7,319.4 4.6,0.6 7.3,0.8 7.3,0.8 277.8,98.7 378.5,-424.9 340.4,-462.9" /></g><g
         transform="scale(1.21767)"
         id="g210"><path
           id="path212"
           style="fill:#ffffff;fill-opacity:1;fill-rule:nonzero;stroke:none"
           d="m 16037.5,11050.7 c 0,0 159.4,-2.4 201.2,-36.8 41.9,-34.4 61.3,-526.6 61.3,-526.6 0,0 -75.6,20.3 -143.3,4.7 -67.8,-15.6 -157.2,0 -157.2,0 l 38,558.7" /></g><g
         transform="scale(1.17793)"
         id="g214"><path
           id="path216"
           style="fill:#ffffff;fill-opacity:1;fill-rule:nonzero;stroke:none"
           d="m 16300,11414.3 c 0,0 -207.7,-41.6 -255.2,-96.8 -47.4,-55.1 -142.9,-332.6 -142.9,-332.6 0,0 36.9,-5.6 55.9,-31.2 18.9,-25.7 81,-13.6 81,-13.6 l 261.2,474.2" /></g><g
         transform="scale(1.22533)"
         id="g218"><path
           id="path220"
           style="fill:#f99746;fill-opacity:1;fill-rule:nonzero;stroke:none"
           d="m 15305.4,9501.31 c 27.3,59.42 55.2,116.63 82.5,170.41 v 0.08 c 54.6,107.24 107.3,200.6 150.8,269.97 l 0.1,0.16 c 14.6,23.42 28.3,44.07 40.5,61.57 5.5,7.9 10.8,15.1 15.8,21.7 1.4,1.9 2.9,3.6 4.4,5.4 0.8,1 1.5,1.9 2.4,2.9 1.7,2 3.4,4 5.4,5.9 1.1,1.3 2.4,2.6 3.7,3.8 0.9,1 1.8,1.9 2.7,2.7 22.6,21.6 51.1,37.5 83.8,49 36.3,12.5 77.6,19.6 121.8,22.4 42.6,2.7 87.8,1.5 133.5,-2.3 h 0.1 c 46.3,-3.8 92.9,-10.4 137.9,-18.4 15.5,-2.8 30.6,-5.6 45.6,-8.7 l 0.5,-0.1 h 0.4 c 61,-12.4 117.2,-26.7 162.7,-39.4 v -547.09 h -994.6" /></g><g
         transform="scale(1.22533)"
         id="g222"><path
           id="path224"
           style="fill:#ed7d2b;fill-opacity:1;fill-rule:nonzero;stroke:none"
           d="m 15631.3,9501.31 c 4.7,13.39 9.4,26.86 14.2,39.99 l 0.1,0.17 c 8.8,24.72 17.7,48.97 26.5,72.47 25,66.51 49.5,127.8 72.2,181.5 33.6,79.33 63.4,141.92 85,180.12 2.1,3.51 4.1,7.02 6.4,10.36 5.6,8.73 11.9,16.78 18.9,24.28 8.5,9.4 17.9,17.8 28.1,25.3 16.3,12 34.6,21.8 54.7,29.6 43.3,16.7 94.6,24.1 151,24.2 15.6,0 31.6,-0.5 48,-1.4 l 0.5,-0.1 h 0.4 c 27.1,-1.7 54.8,-4.7 83.4,-8.8 4.8,-0.7 9.5,-1.4 14.3,-2.2 1.1,-0.2 2.2,-0.4 3.6,-0.6 20.3,-3.3 40.8,-7.1 61.4,-11.4 v -563.49 h -668.7" /></g><g
         transform="scale(1.25553)"
         id="g226"><path
           id="path228"
           style="fill:#8fb7ef;fill-opacity:1;fill-rule:nonzero;stroke:none"
           d="m 13684.3,11590.6 h 2224.9 V 9273.72 h -2224.9 z m 0,678.2 h 2224.9 V 11719 h -2224.9 z m 2389.1,-2995.08 h -50.1 v 2316.88 128.4 663.9 H 13570.2 V 11719 11590.6 9273.72 h -50.1 c -125.2,0 -226.6,-101.46 -226.6,-226.6 v -7.9 H 16300 v 7.9 c 0,125.14 -101.5,226.6 -226.6,226.6" /></g><g
         transform="scale(1.22285)"
         id="g230"><path
           id="path232"
           style="fill:#ffffff;fill-opacity:1;fill-rule:nonzero;stroke:none"
           d="m 16300,12435.2 h -2208.5 v 111.1 H 16300 v -111.1" /></g><g
         transform="scale(1.22285)"
         id="g234"><path
           id="path236"
           style="fill:#ffffff;fill-opacity:1;fill-rule:nonzero;stroke:none"
           d="m 16300,12260.8 h -2208.5 v 111 H 16300 v -111" /></g><g
         transform="scale(1.22285)"
         id="g238"><path
           id="path240"
           style="fill:#ffffff;fill-opacity:1;fill-rule:nonzero;stroke:none"
           d="m 16300,12086.3 h -2208.5 v 111.1 H 16300 v -111.1" /></g><g
         transform="scale(1.22285)"
         id="g242"><path
           id="path244"
           style="fill:#ffffff;fill-opacity:1;fill-rule:nonzero;stroke:none"
           d="M 16300,11922.9 H 14091.5 V 12034 H 16300 v -111.1" /></g><g
         transform="scale(1.22285)"
         id="g246"><path
           id="path248"
           style="fill:#ffffff;fill-opacity:1;fill-rule:nonzero;stroke:none"
           d="m 16300,11739.2 h -2208.5 v 111.1 H 16300 v -111.1" /></g><g
         transform="scale(1.06645)"
         id="g250"><path
           id="path252"
           style="fill:#ffffff;fill-opacity:1;fill-rule:nonzero;stroke:none"
           d="m 16300,13357.5 h -24.5 v 1088.6 h 24.5 v -1088.6" /></g><g
         transform="scale(1.21612)"
         id="g254"><path
           id="path256"
           style="fill:#ffffff;fill-opacity:1;fill-rule:nonzero;stroke:none"
           d="m 16300,11713.6 h -21.5 v 954.7 h 21.5 v -954.7" /></g><g
         transform="scale(1.23368)"
         id="g258"><path
           id="path260"
           style="fill:#f9ddbf;fill-opacity:1;fill-rule:nonzero;stroke:none"
           d="M 16300,7041.16 V 3876.87 H 13919.5 V 7041.16 H 16300" /></g><g
         transform="scale(1.14752)"
         id="g262"><path
           id="path264"
           style="fill:#ffffff;fill-opacity:1;fill-rule:nonzero;stroke:none"
           d="m 16293.9,7508.57 c 0,0 6.1,-1005.3 -1013.7,-1855.05 0,0 212.5,-1108.05 182.2,-1422.03 h -490 v 3277.08 h 1321.5" /></g><g
         transform="scale(1.15335)"
         id="g266"><path
           id="path268"
           style="fill:#ffb27d;fill-opacity:1;fill-rule:nonzero;stroke:none"
           d="m 16300,5766.77 c 0,0 -105.3,-11.53 -167.3,-116.01 -61.9,-104.48 -181.8,-556.47 -269.4,-648.72 -87.7,-92.26 -396.7,-276.76 -396.7,-276.76 l 78.5,-50.72 c 0,0 470.3,142.97 539.5,226.04 69.2,82.97 166.9,528.02 166.9,528.02 l 48.5,338.15" /></g><g
         transform="scale(1.2202)"
         id="g270"><path
           id="path272"
           style="fill:#233862;fill-opacity:1;fill-rule:nonzero;stroke:none"
           d="m 15505.3,6052.03 c 0,0 5.7,140.79 208.4,149.56 202.7,8.69 348.6,-162.18 355.2,-255.45 6.6,-93.34 -34.8,-238.48 98.2,-334.86 132.9,-96.29 67.5,-544.74 -246.4,-544.74 -313.9,0 -500.9,18.27 -502,180.29 -1.3,162.03 -6.3,308.89 118.4,353.88 124.6,44.99 -31.8,451.32 -31.8,451.32" /></g><g
         transform="scale(1.18636)"
         id="g274"><path
           id="path276"
           style="fill:#1c468a;fill-opacity:1;fill-rule:nonzero;stroke:none"
           d="m 16300,4371.01 c 0,0 -0.4,-1.35 -1.2,-3.88 -0.3,-1.01 -0.7,-2.1 -1.1,-3.45 -0.8,-2.87 -2,-6.58 -3.3,-11.13 -0.4,-1.01 -0.7,-2.19 -1.1,-3.37 -1.1,-3.62 -2.4,-7.84 -3.8,-12.39 -0.8,-2.7 -1.6,-5.57 -2.6,-8.6 -7.3,-24.02 -17.2,-57.4 -29.1,-97.61 -3,-10.37 -6.2,-21.24 -9.5,-32.53 -1.6,-5.57 -3.3,-11.3 -4.9,-17.12 -0.6,-1.93 -1.2,-3.96 -1.7,-5.98 -1.2,-3.96 -2.4,-7.92 -3.5,-11.97 -1.3,-4.55 -2.7,-9.19 -4,-13.99 -3.1,-10.88 -6.4,-22.09 -9.6,-33.55 -7.6,-26.72 -15.5,-54.87 -23.6,-83.95 h -487.7 c 1.2,30.59 2.6,59.5 4.4,86.56 0.4,6.32 0.8,12.48 1.2,18.63 2.1,30.51 4.5,58.67 6.9,84.13 0.7,6.74 1.3,13.31 1.9,19.72 1.4,12.9 2.7,25.03 4.1,36.5 0.2,2.1 0.5,4.13 0.8,6.15 0.2,2.11 0.5,4.13 0.7,6.15 1.5,12.14 3,23.27 4.4,33.38 0.5,3.37 1,6.66 1.4,9.86 0.4,3.12 1,6.24 1.4,9.19 0.4,2.95 0.8,5.73 1.2,8.43 0.5,2.7 0.9,5.23 1.3,7.76 0.2,1.26 0.3,2.44 0.6,3.62 0.6,3.54 1.1,6.83 1.6,9.86 0.4,2.02 0.8,3.96 1,5.74 0.3,1.76 0.7,3.45 0.9,4.97 1.2,6.32 3.2,12.22 5.8,17.53 0.7,1.35 1.5,2.7 2.2,3.96 0.8,1.27 1.6,2.53 2.4,3.71 1.8,2.53 3.7,4.89 5.8,7.16 0.9,1.01 2,2.03 3,2.95 1.1,1.1 2.2,2.11 3.3,3.04 1,0.76 1.8,1.43 2.7,2.11 1.6,1.26 3.2,2.44 4.9,3.54 1.1,0.75 2.2,1.43 3.4,2.1 2.4,1.44 5,2.87 7.6,4.05 1.3,0.68 2.8,1.35 4.2,1.94 1.6,0.76 3.3,1.43 5,2.11 1.6,0.59 3.2,1.18 4.9,1.77 1.5,0.58 3.1,1.09 4.7,1.6 5.5,1.77 11.4,3.28 17.6,4.55 1.4,0.34 2.9,0.59 4.4,0.84 2.3,0.51 4.5,0.93 6.9,1.27 3.1,0.42 6.2,0.93 9.4,1.35 2.1,0.25 4.2,0.5 6.4,0.67 1.7,0.17 3.5,0.34 5.3,0.51 2.9,0.25 6,0.5 9,0.67 3.5,0.17 7.2,0.34 10.9,0.5 17,0.6 35.1,0.18 53.8,-1.01 4.3,-0.25 8.6,-0.59 13,-0.92 7.2,-0.59 14.4,-1.27 21.7,-2.03 10.4,-1.09 21,-2.36 31.7,-3.87 h 0.1 c 1,-0.09 2,-0.26 3,-0.42 5,-0.68 9.9,-1.44 14.9,-2.2 15,-2.27 30,-4.89 44.9,-7.67 5.9,-1.09 11.8,-2.27 17.6,-3.45 l 16.2,-3.29 c 15.1,-3.12 29.9,-6.41 44.3,-9.78 5.4,-1.26 10.6,-2.53 15.8,-3.79 1.4,-0.25 2.7,-0.59 4.1,-1.01 2.6,-0.59 5.1,-1.18 7.6,-1.86 3.7,-0.92 7.5,-1.85 11.2,-2.78 6,-1.6 11.9,-3.12 17.7,-4.55 2.2,-0.59 4.5,-1.18 6.8,-1.77 3.6,-1.01 7.2,-1.94 10.6,-2.87 9.5,-2.53 18.5,-5.05 26.7,-7.41 3.8,-1.1 7.5,-2.11 10.9,-3.12 3,-0.85 5.9,-1.69 8.7,-2.53 l 1.3,-0.34 c 2.4,-0.76 4.8,-1.43 7,-2.02 2.1,-0.67 4.2,-1.26 6.1,-1.86 2.5,-0.75 4.7,-1.43 6.8,-2.1 1.5,-0.43 2.9,-0.85 4.2,-1.27 1.5,-0.42 2.9,-0.84 4.2,-1.26 7.9,-2.45 12.2,-3.88 12.2,-3.88" /></g><g
         transform="scale(1.18636)"
         id="g278"><path
           id="path280"
           style="fill:#163560;fill-opacity:1;fill-rule:nonzero;stroke:none"
           d="m 16300,4371.01 c 0,0 -0.4,-1.35 -1.2,-3.88 -0.3,-1.01 -0.7,-2.1 -1.1,-3.45 -0.8,-2.87 -2,-6.58 -3.3,-11.13 -0.4,-1.01 -0.7,-2.19 -1.1,-3.37 -1.1,-3.62 -2.4,-7.84 -3.8,-12.39 -0.8,-2.7 -1.6,-5.57 -2.6,-8.6 -7.3,-24.02 -17.2,-57.4 -29.1,-97.61 -3,-10.37 -6.2,-21.24 -9.5,-32.53 -1.6,-5.57 -3.3,-11.3 -4.9,-17.12 -0.6,-1.93 -1.2,-3.96 -1.7,-5.98 -1.2,-3.96 -2.4,-7.92 -3.5,-11.97 -1.3,-4.55 -2.7,-9.19 -4,-13.99 -3.1,-10.88 -6.4,-22.09 -9.6,-33.55 -7.6,-26.72 -15.5,-54.87 -23.6,-83.95 h -487.7 c 1.2,30.59 2.6,59.5 4.4,86.56 0.4,6.32 0.8,12.48 1.2,18.63 2.1,30.51 4.5,58.67 6.9,84.13 0.7,6.74 1.3,13.31 1.9,19.72 1.4,12.9 2.7,25.03 4.1,36.5 0.2,2.1 0.5,4.13 0.8,6.15 0.2,2.11 0.5,4.13 0.7,6.15 1.5,12.14 3,23.27 4.4,33.38 0.5,3.37 1,6.66 1.4,9.86 0.4,3.12 1,6.24 1.4,9.19 0.4,2.95 0.8,5.73 1.2,8.43 0.5,2.7 0.9,5.23 1.3,7.76 0.2,1.26 0.3,2.44 0.6,3.62 0.6,3.54 1.1,6.83 1.6,9.86 0.4,2.02 0.8,3.96 1,5.74 0.3,1.76 0.7,3.45 0.9,4.97 1.2,6.32 3.2,12.22 5.8,17.53 0.7,1.35 1.5,2.7 2.2,3.96 0.8,1.27 1.6,2.53 2.4,3.71 1.8,2.53 3.7,4.89 5.8,7.16 0.9,1.01 2,2.03 3,2.95 1.1,1.1 2.2,2.11 3.3,3.04 1,0.76 1.8,1.43 2.7,2.11 1.6,1.26 3.2,2.44 4.9,3.54 1.1,0.75 2.2,1.43 3.4,2.1 2.4,1.44 5,2.87 7.6,4.05 1.3,0.68 2.8,1.35 4.2,1.94 1.6,0.76 3.3,1.43 5,2.11 1.6,0.59 3.2,1.18 4.9,1.77 1.5,0.58 3.1,1.09 4.7,1.6 5.5,1.77 11.4,3.28 17.6,4.55 1.4,0.34 2.9,0.59 4.4,0.84 2.3,0.51 4.5,0.93 6.9,1.27 3.1,0.42 6.2,0.93 9.4,1.35 2.1,0.25 4.2,0.5 6.4,0.67 1.7,0.17 3.5,0.34 5.3,0.51 2.9,0.25 6,0.5 9,0.67 3.5,0.17 7.2,0.34 10.9,0.5 17,0.6 35.1,0.18 53.8,-1.01 4.3,-0.25 8.6,-0.59 13,-0.92 7.2,-0.59 14.4,-1.27 21.7,-2.03 10.4,-1.09 21,-2.36 31.7,-3.87 h 0.1 c 1,-0.09 2,-0.26 3,-0.42 5,-0.68 9.9,-1.44 14.9,-2.2 15,-2.27 30,-4.89 44.9,-7.67 5.9,-1.09 11.8,-2.27 17.6,-3.45 l 16.2,-3.29 c 15.1,-3.12 29.9,-6.41 44.3,-9.78 5.4,-1.26 10.6,-2.53 15.8,-3.79 1.4,-0.25 2.7,-0.59 4.1,-1.01 2.6,-0.59 5.1,-1.18 7.6,-1.86 3.7,-0.92 7.5,-1.85 11.2,-2.78 6,-1.6 11.9,-3.12 17.7,-4.55 2.2,-0.59 4.5,-1.18 6.8,-1.77 3.6,-1.01 7.2,-1.94 10.6,-2.87 9.5,-2.53 18.5,-5.05 26.7,-7.41 3.8,-1.02 7.5,-2.11 10.9,-3.12 3,-0.85 5.9,-1.69 8.7,-2.53 l 1.3,-0.34 c 2.4,-0.67 4.8,-1.43 7,-2.02 2.1,-0.67 4.2,-1.26 6.1,-1.86 2.5,-0.75 4.7,-1.43 6.8,-2.1 1.5,-0.43 2.9,-0.85 4.2,-1.27 1.5,-0.42 2.9,-0.84 4.2,-1.26 7.9,-2.45 12.2,-3.88 12.2,-3.88" /></g><g
         transform="scale(1.20475)"
         id="g282"><path
           id="path284"
           style="fill:#1c468a;fill-opacity:1;fill-rule:nonzero;stroke:none"
           d="m 16288.4,3969.96 h -474.7 c -11.8,66.65 -22.9,128.24 -32.9,181.78 -16.9,91.55 -30.3,159.86 -36.4,190.58 -2.3,11.78 -3.5,18.09 -3.5,18.09 0,0 4.4,5.23 12.1,14.03 h 0.1 c 49.2,55.45 235.2,252 324.1,161.78 14.5,-14.78 30,-30.47 45.7,-47.57 53.1,-57.93 109,-131.39 141.6,-234.9 24,-76.36 35.5,-169 23.9,-283.79" /></g><g
         transform="scale(1.18413)"
         id="g286"><path
           id="path288"
           style="fill:#ffb27d;fill-opacity:1;fill-rule:nonzero;stroke:none"
           d="m 15977.7,5548.72 81.7,-122.54 164.6,8.03 76,196.6 c 0,0 -23.5,4.39 -34.4,249.46 l -205.4,-62.66 c 0,0 10.9,-63.85 -3.7,-133.43 -10.1,-48.56 -32.3,-100.33 -78.8,-135.46" /></g><g
         transform="scale(1.19417)"
         id="g290"><path
           id="path292"
           style="fill:#ffb27d;fill-opacity:1;fill-rule:nonzero;stroke:none"
           d="m 15820.7,5587.75 c 10.4,0 202.4,64.23 476.4,-47.4 0,0 -130.1,-744.28 -74.2,-886.31 55.8,-142.02 77.1,-268.13 77.1,-268.13 l -606.2,-7.45 c 0,0 8.5,487.53 -19.5,660.04 -27.9,172.59 146.4,549.25 146.4,549.25" /></g><g
         transform="scale(1.2029)"
         id="g294"><path
           id="path296"
           style="fill:#f99746;fill-opacity:1;fill-rule:nonzero;stroke:none"
           d="m 16300,4276.16 c -10.1,-21.2 -32.8,-37.91 -60.5,-51.29 -36.2,-17.38 -80.6,-29.1 -116,-37.16 -27.4,-6.32 -69.5,-13.39 -118,-18.79 -25.9,-2.91 -53.5,-5.4 -81.5,-6.98 -4,-0.25 -8,-0.42 -11.9,-0.67 -181.3,-8.98 -384.3,-4.57 -410.8,81.64 -2.5,8.23 -2.5,24.77 -0.9,46.64 3.4,44.47 13.8,110.97 23.9,173.24 9.6,59.53 19,115.22 21.7,144.07 13.9,152.88 -15.3,372.26 -19.5,514.34 -3.5,118.46 102.1,408.01 102.1,408.01 0,0 20.1,11.89 98.5,22.7 0,0 11.3,-142.08 84.3,-154.13 126.4,-20.86 228.1,94.77 257.9,141.41 0,0 145.1,-36.58 187.6,-85.13 30.6,-34.92 26.6,-118.3 17.5,-170.84 -2.8,-16.62 -6.2,-30.17 -9.1,-37.99 -9.1,-23.69 -43,-197.93 -58.6,-267.35 -0.3,-1.83 -0.6,-3.41 -1,-4.91 -1.1,-4.65 -2,-8.72 -2.8,-12.13 l -0.2,-0.25 c -0.8,-3.74 -1.6,-6.65 -2.2,-8.48 -0.3,-1.17 -0.8,-2.33 -1.1,-3.41 l -0.1,-0.25 c -22.3,-71.24 -35.8,-143.98 -27.9,-233.19 0.9,-10.47 3.3,-23.11 7,-37.32 20.1,-103.67 104.1,-308.01 121.6,-401.78" /></g><g
         transform="scale(1.18163)"
         id="g298"><path
           id="path300"
           style="fill:#ed975d;fill-opacity:1;fill-rule:nonzero;stroke:none"
           d="m 16090.5,5696.19 c 85.1,6.86 209.5,196.51 209.5,196.51 l -205.9,-62.8 c 0,0 10.9,-63.98 -3.6,-133.71" /></g><g
         transform="scale(1.16063)"
         id="g302"><path
           id="path304"
           style="fill:#f99746;fill-opacity:1;fill-rule:nonzero;stroke:none"
           d="m 16300,5754.14 c 0,0 -201.2,-21.54 -268.4,-116.06 -67.3,-94.52 -110,-236.25 -110,-236.25 0,0 48,-144.06 188.2,-126.06 140.3,18.01 190.2,478.37 190.2,478.37" /></g><g
         transform="scale(1.18339)"
         id="g306"><path
           id="path308"
           style="fill:#ffb27d;fill-opacity:1;fill-rule:nonzero;stroke:none"
           d="m 16035.8,5765.57 c 0,0 250.9,7.61 243.7,163.85 -7,156.17 20.5,262.39 -140,264.16 -160.5,1.69 -188.9,-59.32 -199.2,-112.05 -10.3,-52.73 30,-313.93 95.5,-315.96" /></g><g
         transform="scale(1.18718)"
         id="g310"><path
           id="path312"
           style="fill:#233862;fill-opacity:1;fill-rule:nonzero;stroke:none"
           d="m 16003.8,6193.48 c 0,0 7.6,-51.64 106.2,-119.28 98.5,-67.63 115.5,-225.15 115.5,-225.15 0,0 74.5,279.82 -14.7,342.83 -89.1,63.09 -207,1.6 -207,1.6" /></g><g
         transform="scale(1.17149)"
         id="g314"><path
           id="path316"
           style="fill:#233862;fill-opacity:1;fill-rule:nonzero;stroke:none"
           d="m 16300,6365.91 c 0,0 -129.7,12.29 -221.9,-133.25 -39.6,-62.74 -8.7,-160.65 32.4,-212.04 0,0 13.5,133.76 84.2,178.75 70.8,44.98 105.3,166.54 105.3,166.54" /></g><g
         transform="scale(1.16838)"
         id="g318"><path
           id="path320"
           style="fill:#ffffff;fill-opacity:1;fill-rule:nonzero;stroke:none"
           d="m 16300,5931.89 c 0,0 -2.3,-19.52 -49.9,-22 0,0 -40,-2.05 -41.2,18.92 0,0 36.8,19.25 91.1,3.08" /></g><g
         transform="scale(1.13612)"
         id="g322"><path
           id="path324"
           style="fill:#82b378;fill-opacity:1;fill-rule:nonzero;stroke:none"
           d="m 15913.7,5016.53 c 0,0 -68.9,80.46 -4.2,131.51 0,0 47.2,28.6 85.7,26.31 0,0 -54.6,-91.54 -36.9,-100.69 17.6,-9.07 53.4,106.41 53.4,106.41 0,0 107.6,10.39 142.2,-6.24 0,0 -91.9,-75.17 -72.6,-79.66 19.3,-4.49 118.6,69.36 118.6,69.36 0,0 100.1,-17.08 94.8,-78.08 -5.3,-61.08 -39.9,-79.92 -55,-78.33 -15.1,1.67 -103.8,35.47 -105.7,23.06 -1.9,-12.41 51.4,-52.99 88.8,-54.84 0,0 -70.6,-77.81 -117.5,-55.36 -46.8,22.44 -50.9,58 -80.1,71.38 -29.2,13.38 -54.1,13.29 -42.1,-0.26 12.1,-13.64 65,-26.85 81.7,-56.42 16.7,-29.58 31.7,-49.55 -16.8,-42.25 -48.5,7.3 -127.4,42.78 -130.9,83.44 -3.4,40.66 -3.4,40.66 -3.4,40.66" /></g><g
         transform="scale(1.13233)"
         id="g326"><path
           id="path328"
           style="fill:#82b378;fill-opacity:1;fill-rule:nonzero;stroke:none"
           d="m 16300,5100.83 c 0,0 -272.7,10.51 -332.9,-67.47 0,0 -13.4,-39.92 -54.4,-76.21 l -6.3,-17.4 c 0,0 47.2,49.81 64.1,52.81 0,0 -26.4,96.62 329.5,108.27" /></g><g
         transform="scale(1.10781)"
         id="g330"><path
           id="path332"
           style="fill:#82b378;fill-opacity:1;fill-rule:nonzero;stroke:none"
           d="m 16264.9,5066.85 c 0,0 -59.9,-44.24 -64,-123.31 l 10.9,-0.99 c 0,0 19.1,81.78 53.6,113.73 34.6,31.96 -0.5,10.57 -0.5,10.57" /></g><g
         transform="scale(1.10004)"
         id="g334"><path
           id="path336"
           style="fill:#a8d29f;fill-opacity:1;fill-rule:nonzero;stroke:none"
           d="m 16186.7,5285.52 c 0,0 113.3,63.45 60.4,149.45 0,0 -42.3,52.91 -87.5,66.45 0,0 24.1,-128.36 0,-131.36 -24.2,-3 -16.7,145 -16.7,145 0,0 -119.2,57.36 -166.1,52.82 0,0 74,-125.27 49.8,-122.27 -24.1,2.99 -107.1,129.81 -107.1,129.81 0,0 -122.4,22.72 -142,-49.82 -19.7,-72.45 12.1,-108.72 30.2,-113.27 18.1,-4.54 134.4,-3 131.4,-18.08 -3.1,-15.1 -81.5,-39.28 -125.4,-25.64 0,0 48.3,-119.36 111.8,-113.27 63.4,6 83.1,45.27 122.3,48.27 39.3,3.09 67.9,-7.55 48.3,-18.09 -19.6,-10.54 -86.1,-3.45 -117.7,-30.45 -31.7,-26.91 -57.5,-43.54 1.4,-55.64 58.9,-12.09 164.7,-4.54 185.8,40.82 21.1,45.27 21.1,45.27 21.1,45.27" /></g><g
         transform="scale(1.09576)"
         id="g338"><path
           id="path340"
           style="fill:#82b378;fill-opacity:1;fill-rule:nonzero;stroke:none"
           d="m 15895.3,5524.47 c 0,0 318.3,-103.12 354.7,-218.29 0,0 -1.6,-51.57 30.3,-110.7 v -22.73 c 0,0 -33.3,77.3 -51.6,87.98 0,0 71.3,100.02 -333.4,263.74" /></g><g
         transform="scale(1.09774)"
         id="g342"><path
           id="path344"
           style="fill:#82b378;fill-opacity:1;fill-rule:nonzero;stroke:none"
           d="m 16251,5186.13 c 0,0 49,-74.43 21,-164.98 l -12.5,3.37 c 0,0 12.2,99.84 -13.4,149.95 -25.7,50.19 4.9,11.66 4.9,11.66" /></g><g
         transform="scale(1.14271)"
         id="g346"><path
           id="path348"
           style="fill:#a8d29f;fill-opacity:1;fill-rule:nonzero;stroke:none"
           d="m 15755.9,5172.37 c 0,0 -143.7,80.51 -76.7,189.73 0,0 53.6,67.03 111.1,84.27 0,0 -30.6,-162.86 0,-166.71 30.7,-3.76 21.1,183.95 21.1,183.95 0,0 151.4,72.9 210.8,67.12 0,0 -93.9,-159.09 -63.2,-155.24 30.6,3.85 136,164.78 136,164.78 0,0 155.2,28.79 180.1,-63.18 24.9,-91.97 -15.3,-138.01 -38.3,-143.7 -23,-5.77 -170.5,-3.84 -166.7,-23.01 3.9,-19.17 103.4,-49.88 159,-32.55 0,0 -61.2,-151.4 -141.8,-143.79 -80.5,7.7 -105.3,57.5 -155.2,61.35 -49.8,3.85 -86.2,-9.63 -61.3,-23.02 24.9,-13.39 109.3,-4.37 149.5,-38.59 40.2,-34.22 72.8,-55.31 -1.9,-70.62 -74.7,-15.32 -208.9,-5.78 -235.8,51.72 -26.7,57.49 -26.7,57.49 -26.7,57.49" /></g><g
         transform="scale(1.13599)"
         id="g350"><path
           id="path352"
           style="fill:#82b378;fill-opacity:1;fill-rule:nonzero;stroke:none"
           d="m 16300,5480.49 c 0,0 -404.8,-131.08 -451.1,-277.56 0,0 2,-65.49 -38.5,-140.67 v -28.96 c 0,0 42.4,98.33 65.5,111.8 0,0 -90.6,127.2 424.1,335.39" /></g><g
         transform="scale(1.10458)"
         id="g354"><path
           id="path356"
           style="fill:#82b378;fill-opacity:1;fill-rule:nonzero;stroke:none"
           d="m 16260,5206.22 c 0,0 -64.2,-97.5 -27.6,-216.19 l 16.4,4.44 c 0,0 -16,130.72 17.6,196.45 33.6,65.73 -6.4,15.3 -6.4,15.3" /></g><g
         transform="scale(1.12395)"
         id="g358"><path
           id="path360"
           style="fill:#1c468a;fill-opacity:1;fill-rule:nonzero;stroke:none"
           d="m 16300,4937.32 c 0,-158.02 -128.1,-286.23 -286.2,-286.23 -32.9,0 -64.7,5.61 -94.2,15.93 -111.8,38.97 -192,145.29 -192,270.3 h 572.4" /></g><g
         transform="scale(1.10745)"
         id="g362"><path
           id="path364"
           style="fill:#285ba5;fill-opacity:1;fill-rule:nonzero;stroke:none"
           d="m 16252.3,4720.38 c -11.7,-1.45 47.7,0 35.4,0 -160.3,0 -290.4,130.11 -290.4,290.48 h 72.2 c 0,-148.18 39.4,-272.69 182.8,-290.48" /></g><g
         transform="scale(1.12423)"
         id="g366"><path
           id="path368"
           style="fill:#163560;fill-opacity:1;fill-rule:nonzero;stroke:none"
           d="m 16300,4635.45 h -580.2 c 0,9.7 4,18.59 10.3,24.91 6.4,6.4 15.3,10.4 25,10.4 h 509.6 c 19.5,0 35.3,-15.83 35.3,-35.31" /></g><g
         transform="scale(1.1244)"
         id="g370"><path
           id="path372"
           style="fill:#163560;fill-opacity:1;fill-rule:nonzero;stroke:none"
           d="m 16300,4926.61 h -588.1 v 8.71 h 588.1 v -8.71" /></g><g
         transform="scale(1.12971)"
         id="g374"><path
           id="path376"
           style="fill:#ffb27d;fill-opacity:1;fill-rule:nonzero;stroke:none"
           d="m 16234.8,4806.03 c -6.4,15.14 -68.2,30.1 -92.8,40.72 0,0 -15.7,-11.24 5.3,-29.74 5.7,-5.05 16.2,-12.75 26.1,-19.74 -3,0.8 -6,1.5 -8.9,2.3 -22.1,6.02 -164.6,-42.58 -181.5,-74.27 -16.9,-31.6 81.7,-110.56 155.5,-85.77 37.8,12.74 161.5,35.23 161.5,35.23 l -20.7,100.02 c 0,0 -38,16.02 -44.5,31.25" /></g><g
         transform="scale(1.20338)"
         id="g378"><path
           id="path380"
           style="fill:#ffb27d;fill-opacity:1;fill-rule:nonzero;stroke:none"
           d="m 16272.5,5391.56 c 0,0 27.5,-190.79 -171.4,-473.66 -198.9,-282.96 -187.3,-300.66 -301.4,-375.78 -114.1,-75.12 -497.6,-153.56 -497.6,-153.56 l -19.5,93.9 c 0,0 372,239.24 407.4,286.44 35.4,47.28 274.4,578.37 274.4,578.37 l 308.1,44.29" /></g><g
         transform="scale(1.20549)"
         id="g382"><path
           id="path384"
           style="fill:#f99746;fill-opacity:1;fill-rule:nonzero;stroke:none"
           d="m 16053.4,5452.8 c 0,0 -158.5,-124.18 -200.5,-184.9 -42.2,-60.64 -80.9,-196.44 -80.9,-196.44 0,0 165.8,-103.94 451.8,-28.87 0,0 76.2,353.72 -1.8,399.76 -78,45.96 -150.3,10.45 -150.3,10.45 h -18.3" /></g><g
         transform="scale(1.22543)"
         id="g386"><path
           id="path388"
           style="fill:#ffffff;fill-opacity:1;fill-rule:nonzero;stroke:none"
           d="m 15320.4,7031.17 c 0,0 174.5,-770.83 979.6,-1043.64 0,0 -7.6,-1187.99 -98.6,-1500.61 -90.9,-312.54 -113.7,-524.47 -113.7,-524.47 h 212.3 v 3068.72 h -979.6" /></g><g
         transform="scale(1.25553)"
         id="g390"><path
           id="path392"
           style="fill:#8fb7ef;fill-opacity:1;fill-rule:nonzero;stroke:none"
           d="m 13684.3,6184.38 h 2224.9 V 3867.44 h -2224.9 z m 0,678.2 h 2224.9 v -549.89 h -2224.9 z m 2389.1,-2995.14 h -50.1 v 2316.94 128.31 663.94 H 13570.2 V 6312.69 6184.38 3867.44 h -50.1 c -125.2,0 -226.6,-101.39 -226.6,-226.6 v -7.88 H 16300 v 7.88 c 0,125.21 -101.5,226.6 -226.6,226.6" /></g><g
         transform="scale(1.33115)"
         id="g394"><path
           id="path396"
           style="fill:#77a4e5;fill-opacity:1;fill-rule:nonzero;stroke:none"
           d="M 8010.68,1607.49 H 16300 V 2742 H 8010.68 V 1607.49" /></g><path
         id="path398"
         style="fill:#a8d29f;fill-opacity:1;fill-rule:nonzero;stroke:none"
         d="m 13284.2,2130.7 c 0,0 -204.4,734.8 -1053.9,981.4 -849.4,246.6 -794.6,123.3 -1561.9,561.7 -767.22,438.5 -1972.9,164.5 -2219.51,-191.8 -246.61,-356.2 -822.05,-548 -1616.7,-534.3 -794.65,13.7 -834.81,-760.2 -834.81,-760.2 l 7286.82,-56.8" /><g
         transform="scale(1.68842)"
         id="g400"><path
           id="path402"
           style="fill:#2e3552;fill-opacity:1;fill-rule:nonzero;stroke:none"
           d="M 16281.8,1253.66 H 1486.26 c -10,0 -18.18,8.17 -18.18,18.18 v 9.71 c 0,9.95 8.18,18.18 18.18,18.18 H 16281.8 c 10,0 18.2,-8.23 18.2,-18.18 v -9.71 c 0,-10.01 -8.2,-18.18 -18.2,-18.18" /></g><path
         id="path404"
         style="fill:#e6f0fd;fill-opacity:1;fill-rule:nonzero;stroke:none"
         d="M 12432.3,4782.8 H 15369 v 3903.7 h -2936.7 z" /><path
         id="path406"
         style="fill:#ffcb9c;fill-opacity:1;fill-rule:nonzero;stroke:none"
         d="m 15297.4,4854.5 h -2793.5 v 3760.4 h 2793.5 V 4854.5" /><path
         id="path408"
         style="fill:#233862;fill-opacity:1;fill-rule:nonzero;stroke:none"
         d="m 13642.5,5303.5 c 0,0 -161.1,-219.7 -161.1,-449 h 1093.4 c 0,0 -58.6,356.3 -307.5,449 -249,92.8 -624.8,0 -624.8,0" /><path
         id="path410"
         style="fill:#ffb27d;fill-opacity:1;fill-rule:nonzero;stroke:none"
         d="m 14980.5,6487.5 c 0,0 -171.9,-437.4 -191.1,-452.8 -51.7,-41.7 -369.4,443.4 -418.2,528.1 -48.8,84.7 -350.4,12.3 -376.1,169.7 -7.9,48.4 -23.9,101.3 -24,135.2 -0.1,4.1 0,8.3 0,12.4 0.3,30.6 2.4,63.8 6.8,99.3 l -15.1,-1.2 -253,-19.5 c 0,0 25.4,-61.4 16.9,-134.7 -2.8,-24 -3.8,-69.1 -6.7,-113.3 -3.3,-49.2 -36.8,-91.1 -84.1,-105 -108.4,-31.8 -242.7,-79.6 -266.1,-139.9 -45.6,-117.3 -148.1,-647.2 -167.6,-826.8 -19.5,-179.6 -201.7,-706.4 -201.7,-706.4 h 91.1 c 0,0 341.6,574.7 370.9,664.5 9,27.5 41.6,137.5 82.4,276.5 38.1,-151.2 92.4,-302.2 104.1,-363.5 20.6,-107.4 -176.7,-453.9 -157.2,-550 19.5,-96 1064.1,-148 1049.9,0 -14.3,148 -161.5,398.7 -190.8,515.8 -22.1,88.4 29.1,383.2 45,558.3 159.6,-182.3 376.5,-352.3 443.1,-317.5 170.8,89.5 224.5,750.1 224.5,750.1 l -83,20.7" /><path
         id="path412"
         style="fill:#233862;fill-opacity:1;fill-rule:nonzero;stroke:none"
         d="m 13791.8,7115.5 c 0,0 -136.1,-108.3 -21.2,-264.9 0,0 -133.2,5.5 -166.8,40.3 0,0 5.6,-15.7 11.5,-23.1 0,0 -123.2,10.2 -169.3,54.5 -46.1,44.4 61.4,668.5 393.7,557.6 0,0 291.3,-12.6 224.6,-343.6 -66.8,-330.9 42.2,-343.9 42.2,-343.9 0,0 -32.1,-11.3 -46.7,-9.6 0,0 -20.5,10.8 -23.3,23.1 0,0 2,-19.1 6.8,-25.7 0,0 -119,2.9 -172.5,54.4 -53.4,51.4 -104,214 -79,280.9" /><path
         id="path414"
         style="fill:#233862;fill-opacity:1;fill-rule:nonzero;stroke:none"
         d="m 13671.7,6979.1 c 0,0 -58.9,123.2 -64.6,223.3 -4.1,71.4 62.5,326.4 318.5,258 0,0 74.8,-16.5 140.2,-73.1 52,-44.9 123.8,-137.1 5.5,-352.4 l -32.8,-73.6 -366.8,17.8" /><path
         id="path416"
         style="fill:#ed975d;fill-opacity:1;fill-rule:nonzero;stroke:none"
         d="m 13995.1,6732.5 c -182.7,26.7 -285.7,218.8 -285.7,218.8 74.5,8.3 178.5,-29.6 261.7,-71.2 0,-4.1 -0.1,-8.3 0,-12.4 0.1,-33.9 11.8,-87.7 24,-135.2" /><path
         id="path418"
         style="fill:#ffb27d;fill-opacity:1;fill-rule:nonzero;stroke:none"
         d="m 13997.5,6805.4 c 0,0 -328,33.7 -303.9,237.6 24.1,204 -2,345.7 208.4,332.8 210.5,-12.9 241.9,-95.5 250.4,-165.5 8.5,-70 -69,-408.4 -154.9,-404.9" /><path
         id="path420"
         style="fill:#233862;fill-opacity:1;fill-rule:nonzero;stroke:none"
         d="m 14051.7,7363 c 0,0 -118.1,-228.5 -259.9,-247.5 -141.8,-18.9 -197,25 -197,25 0,0 115.5,71.3 154.8,214.9 0,0 248.1,129.5 302.1,7.6" /><path
         id="path422"
         style="fill:#233862;fill-opacity:1;fill-rule:nonzero;stroke:none"
         d="m 14027.2,7346.2 c 0,0 60.6,-61.4 70.7,-115.2 10.1,-53.9 4.7,-161.7 36.3,-161.8 0,0 86.9,154.6 22,255.6 -68.8,107.2 -129,21.4 -129,21.4" /><path
         id="path424"
         style="fill:#233862;fill-opacity:1;fill-rule:nonzero;stroke:none"
         d="m 14038.7,7336.7 c 0,0 -93.8,-242.9 -276.9,-302.4 0,0 191.9,133.2 226.4,296.8 34.5,163.6 50.5,5.6 50.5,5.6" /><path
         id="path426"
         style="fill:#ffffff;fill-opacity:1;fill-rule:nonzero;stroke:none"
         d="m 13930.2,6924.5 c 0,0 8.2,-29.4 28.3,-33.7 20.1,-4.4 72.6,-10.1 77.3,-6.2 4.7,3.9 20.4,29.9 20.4,29.9 0,0 -84.2,19.4 -126,10" /><path
         id="path428"
         style="fill:#ffb27d;fill-opacity:1;fill-rule:nonzero;stroke:none"
         d="m 14977.1,6462.8 c 0,0 -5.9,155.7 10.6,209.1 16.6,53.5 52.6,139.6 60.7,136 8.1,-3.6 24.1,-120.3 17.3,-146.5 -6.7,-26.1 6.9,-88.2 17.3,-75.8 10.4,12.4 26.7,95.2 40.3,90.3 13.7,-4.9 1,-55.2 7.5,-67.8 6.5,-12.7 6,-46.5 -20.4,-89.5 -26.5,-42.9 -52.1,-92.1 -52.1,-92.1 l -81.2,36.3" /><path
         id="path430"
         style="fill:#ffb27d;fill-opacity:1;fill-rule:nonzero;stroke:none"
         d="m 13020.1,4932.6 c 0,0 -131.9,31.6 -175.2,16.6 -43.4,-15 -122.5,-92.2 -102.1,-93.5 20.4,-1.2 111,23.2 123.7,19.9 12.8,-3.2 49.8,-8 49.8,-8 0,0 -53.6,-3.4 -51,-13.1 2.5,-9.8 138.7,-11.5 154.8,0 16.1,11.4 71.5,78.1 71.5,78.1 h -71.5" /><path
         id="path432"
         style="fill:#ffffff;fill-opacity:1;fill-rule:nonzero;stroke:none"
         d="m 13495.1,6557.1 c 0,0 165.5,-141.6 376.1,-130.6 210.6,11.1 376.6,184.3 376.6,184.3 0,0 95.9,-0.8 146.4,-54.4 50.4,-53.7 242.4,-294.5 242.4,-294.5 0,0 16.8,-180.7 -198.9,-306.8 l -21.8,39.1 c 0,0 -36.4,-449.9 -13.6,-492.1 22.8,-42.4 201.8,-485 172.5,-552.9 -29.3,-67.9 -1009.1,-234.9 -1083,10.9 -73.8,245.8 110.5,459 103,546.8 -7.6,87.9 -49.9,366.7 -49.9,366.7 0,0 -283.1,43.3 -292.9,212.6 0,0 50.1,473.3 243.1,470.9" /><path
         id="path434"
         style="fill:#8fb7ef;fill-opacity:1;fill-rule:nonzero;stroke:none"
         d="m 12505.7,7764.7 h 2793.4 v -2909 h -2793.4 z m 0,851.5 h 2793.4 v -690.4 h -2793.4 z m 2999.6,-3760.5 h -62.9 v 3903.7 h -3080 v -833.6 -161.1 -2909 h -62.9 c -157.2,0 -284.5,-127.3 -284.5,-284.5 v -9.9 h 3774.8 v 9.9 c 0,157.2 -127.4,284.5 -284.5,284.5" /><path
         id="path436"
         style="fill:#ffffff;fill-opacity:1;fill-rule:nonzero;stroke:none"
         d="m 15257,8418.6 h -2700.7 v 135.8 H 15257 v -135.8" /><path
         id="path438"
         style="fill:#ffffff;fill-opacity:1;fill-rule:nonzero;stroke:none"
         d="m 15257,8205.3 h -2700.7 v 135.8 H 15257 v -135.8" /><path
         id="path440"
         style="fill:#ffffff;fill-opacity:1;fill-rule:nonzero;stroke:none"
         d="m 15257,7992 h -2700.7 v 135.8 H 15257 V 7992" /><path
         id="path442"
         style="fill:#ffffff;fill-opacity:1;fill-rule:nonzero;stroke:none"
         d="M 15257,7792.2 H 12556.3 V 7928 H 15257 v -135.8" /><path
         id="path444"
         style="fill:#ffffff;fill-opacity:1;fill-rule:nonzero;stroke:none"
         d="m 15257,7567.6 h -2700.7 v 135.8 H 15257 v -135.8" /><path
         id="path446"
         style="fill:#ffffff;fill-opacity:1;fill-rule:nonzero;stroke:none"
         d="m 12707.8,7457.4 h -26.1 v 1161 h 26.1 v -1161" /><path
         id="path448"
         style="fill:#ffffff;fill-opacity:1;fill-rule:nonzero;stroke:none"
         d="m 15147.3,7457.4 h -26.1 v 1161 h 26.1 v -1161" /><path
         id="path450"
         style="fill:#fcecdb;fill-opacity:1;fill-rule:nonzero;stroke:none"
         d="m 14548.1,4964.5 h -397.6 v 140.4 h 398.9 c 31,0 56.1,-25.1 56.1,-56.1 v -26.9 c 0,-31.7 -25.7,-57.4 -57.4,-57.4" /><path
         id="path452"
         style="fill:#699dee;fill-opacity:1;fill-rule:nonzero;stroke:none"
         d="M 14944.9,5047.1 V 5026 c 0,-11.3 -3.1,-21.8 -8.4,-30.9 -10.6,-18.3 -30.5,-30.6 -53.2,-30.6 h -745 c -4.9,0 -8.9,4 -8.9,8.9 v 3.2 c 0,4.9 4,8.9 8.9,8.9 h 454.2 c 2.4,3 4.5,6.2 6.3,9.6 4.3,8 6.7,17.1 6.7,26.8 v 26.9 c 0,4.9 -0.6,9.7 -1.8,14.3 -2.1,7.7 -5.7,14.8 -10.6,20.8 h -454.8 c -4.9,0 -8.9,4 -8.9,9 v 3.1 c 0,4.9 4,8.9 8.9,8.9 h 748.8 c 26.4,0 48.6,-17.7 55.5,-41.8 1.5,-5.1 2.3,-10.4 2.3,-16" /><path
         id="path454"
         style="fill:#548ee2;fill-opacity:1;fill-rule:nonzero;stroke:none"
         d="m 14942.6,5063.1 h -338.9 c -2.1,7.7 -5.7,14.8 -10.6,20.8 h -454.8 c -4.9,0 -8.9,4 -8.9,9 v 3.1 c 0,4.9 4,8.9 8.9,8.9 h 748.8 c 26.4,0 48.6,-17.7 55.5,-41.8" /><path
         id="path456"
         style="fill:#f4d2b8;fill-opacity:1;fill-rule:nonzero;stroke:none"
         d="m 14150.5,5034.7 55.2,-2.3 -55.2,-1.5 z" /><path
         id="path458"
         style="fill:#f4d2b8;fill-opacity:1;fill-rule:nonzero;stroke:none"
         d="m 14150.5,5012.7 131.2,-2.4 -131.2,-1.4 z" /><path
         id="path460"
         style="fill:#b5453c;fill-opacity:1;fill-rule:nonzero;stroke:none"
         d="m 14235.6,4855.7 h 423.2 V 4965 h -426.7 c -29.2,0 -52.9,-23.7 -52.9,-52.9 0,-31.1 25.3,-56.4 56.4,-56.4" /><path
         id="path462"
         style="fill:#fcecdb;fill-opacity:1;fill-rule:nonzero;stroke:none"
         d="m 14634.5,4855.7 h 481.7 V 4965 h -482.9 c -29.7,0 -53.8,-24.1 -53.8,-53.8 v -0.5 c 0,-30.3 24.6,-55 55,-55" /><path
         id="path464"
         style="fill:#b5453c;fill-opacity:1;fill-rule:nonzero;stroke:none"
         d="m 14547.3,4855.7 h 585.6 c 4.5,0 8.2,3.7 8.2,8.2 0,4.5 -3.7,8.2 -8.2,8.2 h -585.6 c -4.5,0 -8.1,-3.7 -8.1,-8.2 0,-4.5 3.6,-8.2 8.1,-8.2" /><path
         id="path466"
         style="fill:#b5453c;fill-opacity:1;fill-rule:nonzero;stroke:none"
         d="m 14547.3,4948.6 h 585.6 c 4.5,0 8.2,3.7 8.2,8.2 0,4.5 -3.7,8.2 -8.2,8.2 h -585.6 c -4.5,0 -8.1,-3.7 -8.1,-8.2 0,-4.5 3.6,-8.2 8.1,-8.2" /><path
         id="path468"
         style="fill:#f4d2b8;fill-opacity:1;fill-rule:nonzero;stroke:none"
         d="m 15116.2,4910.4 -65.1,-1.9 65.1,-1.1 z" /><path
         id="path470"
         style="fill:#f4d2b8;fill-opacity:1;fill-rule:nonzero;stroke:none"
         d="m 15116.2,4935.5 -154.8,-1.8 154.8,-1.2 z" /><path
         id="path472"
         style="fill:#699dee;fill-opacity:1;fill-rule:nonzero;stroke:none"
         d="m 14963,4934 c 0,0 6.6,-4.7 8.8,-12.4 0.4,-1.3 0.7,-2.8 0.7,-4.3 0.4,-10.3 0,-33.5 0,-33.5 l 19.6,11.6 19.5,-11.6 v 31.5 c 0,5.9 -1.6,11.7 -4.8,15.5 -1.5,1.8 -3.3,3.2 -5.4,3.2 h -38.4" /><path
         id="path474"
         style="fill:#568cdb;fill-opacity:1;fill-rule:nonzero;stroke:none"
         d="m 14963,4934 c 0,0 6.6,-4.7 8.8,-12.4 l 39.3,-0.4 c 0,0 -1.6,11 -9.7,12.8 h -38.4" /><path
         id="path476"
         style="fill:#dfebfd;fill-opacity:1;fill-rule:nonzero;stroke:none"
         d="m 15308.1,15474.3 v -3903.7 h -2936.7 v 3903.7 h 2936.7" /><path
         id="path478"
         style="fill:#ffffff;fill-opacity:1;fill-rule:nonzero;stroke:none"
         d="m 13782.7,15403.9 c 0,0 -7,-1153.5 1163.2,-2128.7 0,0 -243.8,-1271.4 -209,-1631.7 h 562.2 v 3760.4 h -1516.4" /><path
         id="path480"
         style="fill:#d39e7a;fill-opacity:1;fill-rule:nonzero;stroke:none"
         d="m 12735.3,13215 c 0,0 -244.8,-34.6 -307.9,-89.9 -106.6,-93.2 -28.5,-1512.8 -28.5,-1512.8 0,0 368.2,-30.4 368.2,0 0,30.4 -31.8,1602.7 -31.8,1602.7" /><path
         id="path482"
         style="fill:#efcbab;fill-opacity:1;fill-rule:nonzero;stroke:none"
         d="m 13695.2,11609.7 -526.4,-39.1 -366.8,-27.2 -77.4,-5.8 -4.8,33 -4.2,29.2 -0.9,6.5 -18.5,128.4 -0.1,0.4 -7.3,50.6 -22.5,156.2 -115.3,798.4 -32.1,222.5 c 0,0 -24.4,209.9 170.8,244.1 14.3,2.5 29.4,5.2 44.9,8 l 0.7,0.1 c 66.1,11.8 141.7,25.4 216.1,34.9 61.4,7.9 122,13 175.7,12 23.1,-0.4 44.9,-2 64.9,-4.9 26,-3.7 49,-9.8 68.1,-18.8 2.2,-0.9 4.3,-2 6.4,-3.2 7.6,-3.9 14.4,-8.3 20.5,-13.4 2.6,-2.1 5,-4.4 7.3,-6.7 6.6,-6.7 14.3,-20.9 23,-41.4 9.4,-22.3 19.9,-52 31.3,-87.9 15.9,-49.9 33.5,-111.5 52.1,-181 51.9,-194.7 111.5,-451.3 163.5,-684.7 1.6,-7.1 3.2,-14.1 4.7,-21.1 6.7,-30.1 13.3,-59.8 19.6,-88.8 0.3,-1.4 0.7,-2.8 1,-4.2 1.2,-5.4 2.3,-10.8 3.5,-16.2 3.2,-14.4 6.3,-28.7 9.4,-42.7 6,-28 11.9,-55.2 17.6,-81.4 38.2,-177.2 66.1,-311.7 73.3,-346.8 1.3,-5.9 1.9,-9 1.9,-9" /><path
         id="path484"
         style="fill:#f4a269;fill-opacity:1;fill-rule:nonzero;stroke:none"
         d="m 13362.3,13090.7 c 0,0 83.2,-123.1 130.7,-381.9 41.5,-226.7 78,-310.4 138,-356.9 60,-46.5 394.4,-183.7 394.4,-183.7 l -25,-58.6 c 0,0 -490.1,66.8 -545.2,148.7 -55,81.9 -264.9,565.9 -248.6,677.3 16.3,111.5 155.7,155.1 155.7,155.1" /><path
         id="path486"
         style="fill:#ed7d2b;fill-opacity:1;fill-rule:nonzero;stroke:none"
         d="m 14485.1,11570.6 h -404.6 c -10.1,40.3 -25.1,65.8 -53.6,67.3 -25.7,1.4 -165,-13.4 -333.6,-19.2 -267.5,-9.3 -608.6,3.8 -685.4,139.1 -18.4,32.3 -31.8,64.6 -41.3,96.2 v 0.1 c -1.5,4.7 -2.8,9.2 -4.1,13.8 -15.7,58.4 -18.6,113.8 -15.3,162 1.9,28.1 5.9,53.8 10.7,76.1 11.8,55.8 28.3,90.6 28.3,90.6 l 132.1,-96.7 h 0.1 l 14.8,-10.8 c 0,0 113.5,8.5 269.6,15.1 34.6,1.4 71.3,2.8 109.4,3.9 18.9,0.6 38.1,1.1 57.6,1.5 6.2,0.2 12.5,0.3 18.7,0.4 47.2,1 95.6,1.5 143.8,1.5 4.8,0 9.6,0 14.3,-0.1 11.4,0 22.7,-0.1 34,-0.2 186.4,-1.9 363.5,-14.1 453.4,-48.1 12.6,-4.7 23.5,-9.9 32.5,-15.6 l 0.9,-0.6 c 64.8,-42.3 143.5,-240.3 217.7,-476.3" /><path
         id="path488"
         style="fill:#f99746;fill-opacity:1;fill-rule:nonzero;stroke:none"
         d="m 14113.8,11570.6 h -945 l -366.8,-27.2 c -17.8,8.2 -33.9,17.2 -48.1,27.2 -13,9 -24.3,18.8 -33.9,29.4 -1.8,2.1 -3.6,4.2 -5.3,6.3 -5.9,7.2 -10.9,14.8 -15,22.8 -18.5,35.7 -24.9,70.2 -22.5,102.9 v 0.1 c 1.3,18.5 5.3,36.4 11.6,53.6 14.8,41 41.8,78.3 73,110.8 79,82.3 184.6,133.4 184.6,133.4 h 0.8 c 10.5,-0.5 120.7,-6 266.3,-18.2 h 0.1 c 14,-1.1 28.3,-2.4 42.9,-3.6 h 0.1 c 113.9,-10.2 244.1,-24.1 363.4,-42.6 153.9,-23.9 289.6,-55.3 348.7,-95.9 46,-31.6 96.1,-146.6 145.1,-299" /><path
         id="path490"
         style="fill:#b5453c;fill-opacity:1;fill-rule:nonzero;stroke:none"
         d="m 13343.5,13538.6 -0.1,1.9 v 0.1 c -0.3,16.2 -1.1,32.3 -2.2,48.3 -3.3,48.1 -9.5,94.7 -18.2,136.5 -4.9,23.9 -10.6,46.2 -16.9,66.5 -1,3.1 -2,6.1 -3,9.1 v 0.1 c -15.4,46 -34.2,79.7 -54.8,93.3 -37.6,24.8 -84.3,30.4 -117.1,30.6 9,8.1 25.8,10.2 25.8,10.2 -20.1,4.4 -66.8,-12.7 -66.8,-12.7 -275.3,127.7 -347.4,-285.4 -347.9,-382.4 -0.6,-97.1 -7.3,-208.4 -154.1,-285.7 -56.3,-29.6 -93.5,-65.4 -116.9,-103.8 -96.6,-158.5 42.3,-361.6 42.3,-361.6 0.6,-0.4 15.8,-20.2 37.4,-48.7 56,-73.6 155.1,-204.9 155.1,-204.9 v 0.2 c -0.3,17.7 14.9,52.2 40.9,96.3 19.2,32.5 44.2,70.3 73.2,110.4 13.7,19 28.3,38.5 43.6,58.3 20.3,26.2 41.8,52.9 64.1,79.2 8.5,10.1 17.1,20.2 25.8,30.1 39.4,45 80.5,88.3 120.8,126.1 9.4,8.8 18.7,17.3 27.9,25.5 h 0.1 c 11.5,10.1 22.9,19.8 34.1,28.7 21.6,17.4 42.6,32.5 62.6,44.7 0.9,0.6 1.8,1.1 2.8,1.7 h 0.1 c 2.8,1.7 5.5,3.3 8.3,4.9 8.5,10.8 16.2,23.1 23.2,36.2 2.6,4.9 5.2,9.9 7.5,15 7.2,15 13.5,30.5 19,45.5 16.4,45.6 25,86.8 26.6,94.2 -6,-39.4 -12.9,-71.4 -20.2,-97.4 -4.9,-17.3 -9.9,-31.9 -14.8,-44.3 -3.6,-9 -7.1,-16.7 -10.6,-23.5 -1.5,-3.1 -3.1,-6 -4.6,-8.7 2.2,1.8 4.3,3.6 6.4,5.5 8,7.1 15.4,15.1 22.3,24 8,10.2 15.2,21.4 21.8,33.6 43.5,80 59.3,200 56.5,317" /><path
         id="path492"
         style="fill:#ffb27d;fill-opacity:1;fill-rule:nonzero;stroke:none"
         d="m 13205.5,13198.1 c -4.8,2 -10.5,4.2 -16.4,6.3 0.3,12.6 1,26 2,39.5 4.3,62 13.4,127.4 13.4,127.4 l -206.2,55.3 -12.2,3.3 c -5.7,-90.9 -24.2,-153.1 -40.4,-195.2 -21.4,-0.9 -34.9,-2.2 -34.9,-2.2 -3.5,-12.4 0,-31.8 11.4,-53.3 -1.5,-3.9 -2.7,-7.3 -3.3,-10.2 -12.9,-57.7 132.4,-139.2 199.7,-142.1 39.4,-1.8 60.5,13.9 71.5,33.8 82.1,21.3 75.7,112.2 15.4,137.4" /><path
         id="path494"
         style="fill:#f4a269;fill-opacity:1;fill-rule:nonzero;stroke:none"
         d="m 13204.5,13371.3 c 0,0 -9.1,-65.4 -13.4,-127.4 -116.7,11.1 -171.4,121.9 -192.8,182.7 l 206.2,-55.3" /><path
         id="path496"
         style="fill:#b5453c;fill-opacity:1;fill-rule:nonzero;stroke:none"
         d="m 12978.3,13450.8 c 0,0 -54.8,100.8 -64,184.6 -6.6,59.8 38.1,276.8 256.1,230.6 0,0 63.5,-10.6 120.9,-55.2 45.7,-35.4 110,-109.7 20.1,-295.7 l -24.3,-63.2 -308.8,-1.1" /><path
         id="path498"
         style="fill:#ffb27d;fill-opacity:1;fill-rule:nonzero;stroke:none"
         d="m 13239.6,13310 c 0,0 -276.9,13.9 -265.6,186.2 11.3,172.3 -16.8,290.1 160.5,288.6 177.2,-1.6 207.2,-69.6 217.4,-128 10.3,-58.5 -40,-345.9 -112.3,-346.8" /><path
         id="path500"
         style="fill:#b5453c;fill-opacity:1;fill-rule:nonzero;stroke:none"
         d="m 13260.7,13780.6 c 0,0 -89.2,-197.1 -207.4,-219.2 -118.2,-22.2 -166.5,12.3 -166.5,12.3 0,0 93.8,64.9 120.6,187.3 0,0 202.6,119.6 253.3,19.6" /><path
         id="path502"
         style="fill:#b5453c;fill-opacity:1;fill-rule:nonzero;stroke:none"
         d="m 13240.8,13765.4 c 0,0 53.6,-48.9 64.5,-93.7 10.8,-44.8 11,-135.5 37.5,-134.2 0,0 66.2,133.6 7.3,215.6 -62.5,86.9 -109.3,12.3 -109.3,12.3" /><path
         id="path504"
         style="fill:#739af0;fill-opacity:1;fill-rule:nonzero;stroke:none"
         d="m 13516.7,12074.7 c -22.4,-26.8 -92.4,-35.1 -167.2,-47.4 -58.8,-9.7 -120.6,-21.9 -164.6,-47.7 -99.8,-58.6 -425.9,-256.6 -521.5,-247.6 -37,3.5 -30.1,74.2 -7.7,168.1 35.4,148.2 109.3,354 109.3,443.6 0,48.8 16.3,164.4 38,296.6 1.8,10.6 3.6,21.4 5.4,32.2 42.9,257 102.4,559.9 102.4,559.9 0,0 66.3,-144.6 195.5,-144.6 129.2,0 99.2,110.3 99.2,110.3 0,0 117.9,-13.9 145.7,-43.9 27.9,-30 98.6,-159.7 112.6,-195 0,0 2.8,-45 -108.6,-66.5 0,0 27.1,-122.2 30.4,-203.6 2.3,-60.2 -41.1,-248.5 -53.6,-365.6 -4.4,-41.5 -5,-74 1.7,-88.8 8.6,-18.9 36.5,-37.8 68.3,-56.2 63,-36.7 141.3,-72 114.7,-103.8" /><path
         id="path506"
         style="fill:#4a75cb;fill-opacity:1;fill-rule:nonzero;stroke:none"
         d="m 13402,12178.5 c 71.5,-122 -194,-158.6 -238,-184.5 -99.8,-58.6 -405,-271 -500.6,-262 -37,3.5 -30.1,74.2 -7.7,168.1 35.4,148.2 109.3,354 109.3,443.6 0,48.8 16.3,164.4 38,296.6 l 115,110.4 c 0,0 123.3,-318.6 240.8,-370.8 61.6,-27.4 125.9,-45.4 173.2,-56.4 -4.4,-41.5 -5,-74 1.7,-88.8 8.6,-18.9 36.5,-37.8 68.3,-56.2" /><path
         id="path508"
         style="fill:#233862;fill-opacity:1;fill-rule:nonzero;stroke:none"
         d="m 13788.7,12046.9 h -361.9 v 42.7 h 361.9 v -42.7" /><path
         id="path510"
         style="fill:#233862;fill-opacity:1;fill-rule:nonzero;stroke:none"
         d="m 13711.8,12052.7 c 3.6,14.2 332.7,531.1 332.7,531.1 h 732.5 l -367.4,-517.2 -697.8,-13.9" /><path
         id="path512"
         style="fill:#2b478b;fill-opacity:1;fill-rule:nonzero;stroke:none"
         d="m 13742.6,12046.9 c 3.6,14.1 333.8,536.9 333.8,536.9 h 700.6 l -349.5,-536.9 h -684.9" /><path
         id="path514"
         style="fill:#afcdfb;fill-opacity:1;fill-rule:nonzero;stroke:none"
         d="m 14322.4,12297.4 c -7.2,-21 -30,-38 -50.9,-38 -21,0 -32.1,17 -24.9,38 7.2,20.9 30,37.9 51,37.9 20.9,0 32,-17 24.8,-37.9" /><path
         id="path516"
         style="fill:#ffb27d;fill-opacity:1;fill-rule:nonzero;stroke:none"
         d="m 13625.6,12223.5 c -15.1,6.5 -132.1,-14.8 -165.5,-21 -105.9,20.7 -454.1,90.3 -471,112.1 -20,25.7 -63.7,809.4 -113.7,822.5 0,0 -98.4,59.7 -193.5,-53.6 -95.1,-113.3 67.6,-923.4 208.5,-965 156.6,-46.2 608.8,7.4 608.8,7.4 v 0 c 37.1,-12.6 102,-19.8 136.5,-31.3 45.5,-15.2 86,-2.5 96.1,15.2 10.1,17.7 -88.5,106.1 -106.2,113.7" /><path
         id="path518"
         style="fill:#739af0;fill-opacity:1;fill-rule:nonzero;stroke:none"
         d="m 12910.8,13232.5 c 0,0 -202.1,-18.2 -260.7,-84.7 -58.7,-66.4 -75.8,-246.5 -75.8,-246.5 0,0 177.9,-143.6 392.2,-87.9 l -55.7,419.1" /><path
         id="path520"
         style="fill:#ffffff;fill-opacity:1;fill-rule:nonzero;stroke:none"
         d="m 13706.1,15403.9 c 0,0 -213.8,-944.6 -1200.4,-1278.9 0,0 9.3,-1455.7 120.8,-1838.8 111.4,-383.1 139.3,-642.7 139.3,-642.7 h -260.1 v 3760.4 h 1200.4" /><path
         id="path522"
         style="fill:#8fb7ef;fill-opacity:1;fill-rule:nonzero;stroke:none"
         d="m 15299.1,11643.5 h -2793.4 v 2908.9 h 2793.4 z m 0,3070 h -2793.4 v 690.4 h 2793.4 z M 12015,11359 v -9.9 h 3774.8 v 9.9 c 0,157.1 -127.4,284.5 -284.5,284.5 h -62.9 v 2908.9 161.1 833.7 h -3080 v -833.7 -161.1 -2908.9 h -62.9 c -157.2,0 -284.5,-127.4 -284.5,-284.5" /><path
         id="path524"
         style="fill:#6bb7bf;fill-opacity:1;fill-rule:nonzero;stroke:none"
         d="m 14824.3,11927 c 0,0 99.1,-40.2 169.6,60.9 0,0 -114.4,19.4 -169.6,-60.9" /><path
         id="path526"
         style="fill:#6bb7bf;fill-opacity:1;fill-rule:nonzero;stroke:none"
         d="m 14817.3,11968.5 c 0,0 -7,35.5 -48.5,36.7 0,0 15.6,-35.9 48.5,-36.7" /><path
         id="path528"
         style="fill:#6bb7bf;fill-opacity:1;fill-rule:nonzero;stroke:none"
         d="m 14838.2,12176 c 0,0 48.1,-5.2 66.1,47.5 0,0 -52.1,-5.8 -66.1,-47.5" /><path
         id="path530"
         style="fill:#6bb7bf;fill-opacity:1;fill-rule:nonzero;stroke:none"
         d="m 14952.3,12872.6 c -97,20.8 -98.7,100.2 -98.7,100.2 114.3,-36.1 98.7,-100.2 98.7,-100.2" /><path
         id="path532"
         style="fill:#6bb7bf;fill-opacity:1;fill-rule:nonzero;stroke:none"
         d="m 14959,12890.7 c 0,0 60.5,-24.6 103.5,37.2 0,0 -69.8,11.8 -103.5,-37.2" /><path
         id="path534"
         style="fill:#6bb7bf;fill-opacity:1;fill-rule:nonzero;stroke:none"
         d="m 14826.2,11694.3 -12.6,-14.5 c -1.9,-2.1 -5.5,-0.8 -5.5,2.1 0.7,408.5 52.6,771.5 96.1,985.6 47.6,233.7 95.8,371.9 96.3,373.2 -0.5,-1.3 -44,-141.7 -91.4,-374.8 -43.6,-214.4 -93.5,-494.8 -80.9,-966.1 0.1,-2 -0.7,-4 -2,-5.5" /><path
         id="path536"
         style="fill:#f99746;fill-opacity:1;fill-rule:nonzero;stroke:none"
         d="m 14999.7,13096.4 c -15.5,-12.4 -74.8,-65.4 -17.3,-106.3 0,0 44.1,-14 58.7,20 11.1,25.9 14.1,54.8 14.9,67 0.2,3.2 -2.2,5.9 -5.4,6.2 -3.3,0.3 -7.9,1.1 -12.4,2.8 -5.5,2.1 -8.2,10.4 -15.6,12.2 -4.6,1.1 -9.3,2.1 -14.7,1.6 -3,-0.3 -5.9,-1.6 -8.2,-3.5" /><path
         id="path538"
         style="fill:#6bb7bf;fill-opacity:1;fill-rule:nonzero;stroke:none"
         d="m 14966.8,13004.9 c 0,0 17.5,-14.1 11,-36.5 l -0.2,-8.3 c 0,0 4.7,20.7 26.2,27.2 0,0 -19.4,-2.2 -37,17.6" /><path
         id="path540"
         style="fill:#8ad8db;fill-opacity:1;fill-rule:nonzero;stroke:none"
         d="m 14952.3,12872.6 c -97,20.8 -98.7,100.2 -98.7,100.2 0,0 76.9,-42.2 98.7,-100.2" /><path
         id="path542"
         style="fill:#6bb7bf;fill-opacity:1;fill-rule:nonzero;stroke:none"
         d="m 14859.1,12927 c 0,0 -61,-23.4 -102.8,39.2 0,0 70.1,10.5 102.8,-39.2" /><path
         id="path544"
         style="fill:#6bb7bf;fill-opacity:1;fill-rule:nonzero;stroke:none"
         d="m 14967.9,11728.1 12.2,-14.7 c 1.9,-2.2 5.5,-0.9 5.6,2 7.5,408.5 -37.1,772.3 -76.4,987.3 -42.8,234.6 -88.3,373.7 -88.7,375.1 0.4,-1.4 41.1,-142.6 83.8,-376.5 39.3,-215.4 83.6,-496.6 61.6,-967.6 -0.1,-2 0.6,-4 1.9,-5.6" /><path
         id="path546"
         style="fill:#f99746;fill-opacity:1;fill-rule:nonzero;stroke:none"
         d="m 14822.5,13133.4 c 15.2,-12.7 73.4,-66.9 15.1,-106.6 0,0 -44.3,-13 -58.2,21.2 -10.6,26.1 -13.1,55 -13.6,67.3 -0.2,3.2 2.3,5.8 5.5,6 3.4,0.3 7.9,1 12.5,2.6 5.5,2 8.4,10.2 15.8,11.9 4.6,1 9.4,1.9 14.7,1.3 3.1,-0.3 5.9,-1.7 8.2,-3.7" /><path
         id="path548"
         style="fill:#6bb7bf;fill-opacity:1;fill-rule:nonzero;stroke:none"
         d="m 14853.6,13041.3 c 0,0 -17.8,-13.7 -11.8,-36.3 v -8.3 c 0,0 -4.3,20.9 -25.6,27.7 0,0 19.3,-2.5 37.4,16.9" /><path
         id="path550"
         style="fill:#6bb7bf;fill-opacity:1;fill-rule:nonzero;stroke:none"
         d="m 14885,12998.5 c 0,0 64.4,-10.8 92.9,58.9 0,0 -70.7,-3.7 -92.9,-58.9" /><path
         id="path552"
         style="fill:#6bb7bf;fill-opacity:1;fill-rule:nonzero;stroke:none"
         d="m 15016.2,11801.9 -9,-16.8 c -1.4,-2.6 -5.2,-2 -5.9,0.8 -88.4,398.9 -116.9,764.4 -121.1,982.8 -4.5,238.5 12.4,383.8 12.6,385.3 -0.2,-1.5 -12,-147.9 -7.5,-385.7 4.2,-218.9 16.6,-503.3 131.8,-960.6 0.4,-1.9 0.1,-4 -0.9,-5.8" /><path
         id="path554"
         style="fill:#f99746;fill-opacity:1;fill-rule:nonzero;stroke:none"
         d="m 14879.8,13208.1 c -12.4,-15.5 -58.6,-80.1 6.4,-107.5 0,0 46,-4 52.8,32.3 5.3,27.7 1.9,56.6 0,68.7 -0.5,3.2 -3.4,5.3 -6.6,4.8 -3.3,-0.4 -7.9,-0.6 -12.7,0.1 -5.8,0.9 -10.3,8.3 -17.9,8.5 -4.7,0.1 -9.5,0 -14.7,-1.7 -2.9,-0.9 -5.4,-2.8 -7.3,-5.2" /><path
         id="path556"
         style="fill:#6bb7bf;fill-opacity:1;fill-rule:nonzero;stroke:none"
         d="m 14867.7,13111.7 c 0,0 20.2,-9.9 18.7,-33.3 l 1.7,-8.1 c 0,0 0,21.3 19.6,32.2 0,0 -18.5,-6.3 -40,9.2" /><path
         id="path558"
         style="fill:#6bb7bf;fill-opacity:1;fill-rule:nonzero;stroke:none"
         d="m 14938.1,13070.3 c 0,0 0,51 44,67 0,0 9.7,-42.6 -44,-67" /><path
         id="path560"
         style="fill:#ed9f4a;fill-opacity:1;fill-rule:nonzero;stroke:none"
         d="m 14834.9,13152.3 c 0,0 1.3,38.9 -34.8,50.1 0,0 -8.6,-36.2 34.8,-50.1" /><path
         id="path562"
         style="fill:#ed9f4a;fill-opacity:1;fill-rule:nonzero;stroke:none"
         d="m 14953,12918 c 1.3,-1.1 18.8,37.9 -16.7,69.3 0,0 -14.9,-41.8 16.7,-69.3" /><path
         id="path564"
         style="fill:#6bb7bf;fill-opacity:1;fill-rule:nonzero;stroke:none"
         d="m 14977.9,12921.1 c -1,-0.3 -0.3,19.4 18.2,22.2 0,0 3.1,-16.4 -18.2,-22.2" /><path
         id="path566"
         style="fill:#6bb7bf;fill-opacity:1;fill-rule:nonzero;stroke:none"
         d="m 14793.8,12987.3 c 0,0 -15.6,32.2 -65.5,26.6 0,0 7.5,-34.6 65.5,-26.6" /><path
         id="path568"
         style="fill:#f99746;fill-opacity:1;fill-rule:nonzero;stroke:none"
         d="m 15069.5,11646.5 h -319.8 c -21.5,0 -38,19 -34.9,40.3 l 148.9,1026.1 c 1.4,9.6 9.6,16.7 19.2,16.7 h 47.6 c 10.3,0 19,-7.6 20.5,-17.8 l 152.5,-1026 c 3,-20.7 -13,-39.3 -34,-39.3" /><path
         id="path570"
         style="fill:#ffb278;fill-opacity:1;fill-rule:nonzero;stroke:none"
         d="m 14820.5,11677.5 79.1,1051.8 c -8.5,-1.1 -15.4,-7.7 -16.7,-16.4 L 14734,11686.8 c -3.1,-21.3 13.4,-40.3 34.9,-40.3 h 63.9 c -8.2,7.4 -13.2,18.6 -12.3,31" /><g
         transform="scale(1.44567)"
         id="g572"><path
           id="path574"
           style="fill:#a2c5f9;fill-opacity:1;fill-rule:nonzero;stroke:none"
           d="m 16300,6441.7 h -46.5 l 0.4,3.66 14.1,123.96 c 0.5,3.94 3.8,6.99 7.9,6.99 l 1.4,-0.07 c 2.6,-0.35 5,-1.46 6.9,-3.19 2.2,-2 3.7,-4.77 4,-7.95 l 11.8,-123.4" /></g><g
         transform="scale(1.44413)"
         id="g576"><path
           id="path578"
           style="fill:#afcdfb;fill-opacity:1;fill-rule:nonzero;stroke:none"
           d="m 16275.4,6476.75 -1.7,-0.07 11.6,99.65 c 0.5,3.94 3.9,6.99 7.9,6.99 l 1.5,-0.07 1.2,-1.18 c 2,-2.21 3.3,-5.12 3.3,-8.31 l 0.7,-71.6 c 0.1,-13.78 -10.8,-25.06 -24.5,-25.41" /></g><g
         transform="scale(1.4483)"
         id="g580"><path
           id="path582"
           style="fill:#a2c5f9;fill-opacity:1;fill-rule:nonzero;stroke:none"
           d="M 16300,5879.51 V 1930.19 h -89.4 v 3949.32 h 89.4" /></g><g
         transform="scale(1.44402)"
         id="g584"><path
           id="path586"
           style="fill:#afcdfb;fill-opacity:1;fill-rule:nonzero;stroke:none"
           d="M 16300,5896.92 V 1935.91 h -41.4 v 3961.01 h 41.4" /></g><g
         transform="scale(1.45698)"
         id="g588"><path
           id="path590"
           style="fill:#a2c5f9;fill-opacity:1;fill-rule:nonzero;stroke:none"
           d="M 16300,2545.19 V 1506.47 h -283.1 v 1038.72 h 283.1" /></g><g
         transform="scale(1.44676)"
         id="g592"><path
           id="path594"
           style="fill:#afcdfb;fill-opacity:1;fill-rule:nonzero;stroke:none"
           d="M 16300,2563.18 V 1517.12 h -170 v 1046.06 h 170" /></g><g
         transform="scale(1.45816)"
         id="g596"><path
           id="path598"
           style="fill:#a2c5f9;fill-opacity:1;fill-rule:nonzero;stroke:none"
           d="m 16300,6327.36 c 0,-48.49 -72.8,-87.78 -162.6,-87.78 -6.9,0 -13.6,0.27 -20.2,0.68 -80.3,5.42 -142.3,42.32 -142.3,87.1 0,44.78 62,81.68 142.3,87.03 6.6,0.48 13.3,0.68 20.2,0.68 89.8,0 162.6,-39.29 162.6,-87.71" /></g><g
         transform="scale(1.45063)"
         id="g600"><path
           id="path602"
           style="fill:#afcdfb;fill-opacity:1;fill-rule:nonzero;stroke:none"
           d="m 16300,6360.19 c 0,-39.29 -40.9,-73 -99.2,-87.54 -80.7,5.44 -143,42.53 -143,87.54 0,45.02 62.3,82.11 143,87.48 58.3,-14.47 99.2,-48.18 99.2,-87.48" /></g><g
         transform="scale(1.46451)"
         id="g604"><path
           id="path606"
           style="fill:#afcdfb;fill-opacity:1;fill-rule:nonzero;stroke:none"
           d="m 16215.9,5737.42 h -281.7 l -99.3,478.25 h 465.1 l -84.1,-478.25" /></g><g
         transform="scale(1.46677)"
         id="g608"><path
           id="path610"
           style="fill:#a2c5f9;fill-opacity:1;fill-rule:nonzero;stroke:none"
           d="m 16300,6242.1 v -45.82 h -514.6 v 45.82 h 514.6" /></g><g
         transform="scale(1.44957)"
         id="g612"><path
           id="path614"
           style="fill:#afcdfb;fill-opacity:1;fill-rule:nonzero;stroke:none"
           d="m 16300,6316.15 v -46.36 h -327.3 v 46.36 h 327.3" /></g><g
         transform="scale(1.45199)"
         id="g616"><path
           id="path618"
           style="fill:#a2c5f9;fill-opacity:1;fill-rule:nonzero;stroke:none"
           d="m 16118.4,2553.94 h 181.6 l -26.6,80.58 c -2.3,7.09 -9,11.98 -16.5,11.98 h -85.1 c -9.2,0 -17.5,-5.58 -21,-14.12 l -32.4,-78.44" /></g><g
         transform="scale(1.46141)"
         id="g620"><path
           id="path622"
           style="fill:#c7dcf9;fill-opacity:1;fill-rule:nonzero;stroke:none"
           d="m 15901.9,6205.47 h 398.1 l -77.7,-430.75 h -228.6 l -91.8,430.75" /></g><g
         transform="scale(1.43812)"
         id="g624"><path
           id="path626"
           style="fill:#c7dcf9;fill-opacity:1;fill-rule:nonzero;stroke:none"
           d="m 16208.4,6410.26 c 0,0 30.8,67.38 91.6,65.29 0,0 -38.7,-34.42 -35.1,-65.29 3.5,-30.81 -56.5,0 -56.5,0" /></g><g
         transform="scale(1.46381)"
         id="g628"><path
           id="path630"
           style="fill:#a2c5f9;fill-opacity:1;fill-rule:nonzero;stroke:none"
           d="m 16300,6254.7 h -449.7 l 36.8,52.4 h 377.9 l 35,-52.4" /></g><g
         transform="scale(1.45387)"
         id="g632"><path
           id="path634"
           style="fill:#afcdfb;fill-opacity:1;fill-rule:nonzero;stroke:none"
           d="m 16300,6297.49 h -341.3 l 37.1,52.76 h 269 l 35.2,-52.76" /></g><g
         transform="scale(1.43864)"
         id="g636"><path
           id="path638"
           style="fill:#d2e4f9;fill-opacity:1;fill-rule:nonzero;stroke:none"
           d="m 16180.3,6288.42 h 92.7 l 27,-408.65 h -27 l -92.7,408.65" /></g><path
         id="path640"
         style="fill:#f1f7fd;fill-opacity:1;fill-rule:nonzero;stroke:none"
         d="M 9707.21,13563.3 6525.15,12513.5 c 163.52,190.7 342.65,374.8 535.65,551.8 l 2646.41,498" /><path
         id="path642"
         style="fill:#f8fbff;fill-opacity:1;fill-rule:nonzero;stroke:none"
         d="m 9500.09,12813.5 c 0,114.4 92.74,207.1 207.15,207.1 114.4,0 207.14,-92.7 207.14,-207.1 0,-114.4 -92.74,-207.2 -207.14,-207.2 -114.41,0 -207.15,92.8 -207.15,207.2" /><g
         transform="scale(1.36176)"
         id="g644"><path
           id="path646"
           style="fill:#afcdfb;fill-opacity:1;fill-rule:nonzero;stroke:none"
           d="m 16300,12737.7 -8814.03,-317.6 -21.74,603.3 8814.07,317.6 21.7,-603.3" /></g><g
         transform="scale(1.00979)"
         id="g648"><path
           id="path650"
           style="fill:#afcdfb;fill-opacity:1;fill-rule:nonzero;stroke:none"
           d="m 15524.2,15550.6 h -3504.7 v 749.4 h 3504.7 v -749.4" /></g><g
         transform="scale(1.2482)"
         id="g652"><path
           id="path654"
           style="fill:#afcdfb;fill-opacity:1;fill-rule:nonzero;stroke:none"
           d="m 16300,12580.4 h -2835.3 v 606.3 H 16300 v -606.3" /></g><path
         id="path656"
         style="fill:#afcdfb;fill-opacity:1;fill-rule:nonzero;stroke:none"
         d="m 15676.2,9050.4 h -3539 v 756.8 h 3539 v -756.8" /><g
         transform="scale(1.2482)"
         id="g658"><path
           id="path660"
           style="fill:#afcdfb;fill-opacity:1;fill-rule:nonzero;stroke:none"
           d="M 16300,7250.78 H 13464.7 V 7857.1 H 16300 v -606.32" /></g></g></g></svg>